<?xml version="1.0" standalone="no"?>
<!DOCTYPE svg PUBLIC "-//W3C//DTD SVG 20010904//EN"
 "http://www.w3.org/TR/2001/REC-SVG-20010904/DTD/svg10.dtd">
<svg version="1.0" xmlns="http://www.w3.org/2000/svg"
 width="1856.000000pt" height="1856.000000pt" viewBox="0 0 1856.000000 1856.000000"
 preserveAspectRatio="xMidYMid meet">
<metadata>
Created by potrace 1.11, written by Peter Selinger 2001-2013
</metadata>
<g transform="translate(0.000000,1856.000000) scale(0.100000,-0.100000)"
fill="#000000" stroke="none">
<path d="M16159 18405 c-25 -13 -88 -32 -134 -39 -11 -1 -33 -10 -50 -18 -40
-20 -97 -36 -145 -40 -8 0 -27 -10 -42 -20 -16 -11 -28 -17 -28 -13 0 3 -12
-1 -27 -8 -16 -7 -43 -14 -61 -15 -19 -2 -47 -9 -62 -17 -16 -8 -36 -15 -44
-15 -8 0 -16 -4 -18 -10 -1 -5 -28 -12 -58 -16 -30 -3 -62 -12 -71 -20 -8 -8
-25 -14 -37 -14 -12 0 -22 -4 -22 -9 0 -5 -8 -8 -17 -6 -10 1 -22 0 -28 -4 -5
-3 -21 -7 -35 -9 -14 -2 -35 -10 -47 -18 -13 -8 -23 -12 -23 -9 0 3 -13 -1
-28 -9 -15 -8 -48 -17 -72 -21 -25 -3 -65 -16 -90 -27 -25 -12 -49 -21 -54
-20 -4 2 -13 -1 -20 -6 -6 -4 -20 -8 -31 -7 -11 0 -32 -5 -46 -12 -15 -7 -29
-9 -33 -6 -3 4 -6 1 -6 -5 0 -7 -7 -12 -15 -12 -8 0 -15 -5 -15 -11 0 -5 -4
-8 -8 -5 -13 8 -126 -20 -155 -38 -15 -10 -27 -15 -27 -12 0 4 -8 2 -18 -3
-10 -5 -36 -12 -59 -16 -22 -3 -58 -14 -79 -24 -22 -11 -42 -17 -46 -14 -5 2
-8 0 -8 -5 0 -5 -6 -9 -12 -9 -36 -2 -96 -16 -118 -28 -42 -23 -63 -29 -122
-39 -21 -3 -57 -14 -80 -25 -59 -26 -78 -32 -116 -37 -19 -2 -50 -13 -71 -23
-20 -11 -66 -25 -101 -32 -36 -7 -75 -18 -86 -26 -12 -8 -31 -16 -43 -18 -11
-3 -31 -7 -43 -11 -13 -3 -32 -7 -44 -9 -12 -3 -42 -14 -68 -26 -48 -21 -68
-26 -121 -34 -16 -2 -49 -13 -71 -24 -37 -18 -68 -27 -129 -36 -11 -2 -39 -13
-61 -24 -23 -11 -54 -23 -70 -26 -60 -11 -125 -31 -150 -47 -7 -4 -29 -10 -50
-14 -22 -3 -48 -11 -59 -17 -11 -6 -22 -10 -25 -10 -3 0 -16 -4 -30 -9 -14 -6
-29 -11 -35 -12 -5 -1 -15 -5 -22 -9 -6 -4 -33 -10 -60 -13 -47 -6 -79 -16
-213 -68 -76 -29 -137 -55 -238 -102 -41 -19 -76 -34 -78 -34 -7 0 -328 -161
-409 -204 -208 -113 -691 -415 -800 -500 -11 -9 -94 -70 -185 -138 -147 -108
-382 -293 -421 -330 -8 -7 -34 -29 -59 -48 -25 -19 -49 -40 -55 -46 -5 -6 -46
-42 -90 -79 -44 -38 -94 -83 -112 -99 -17 -17 -64 -60 -104 -96 -99 -88 -527
-516 -617 -615 -39 -44 -88 -98 -108 -120 -30 -33 -96 -112 -253 -302 -10 -12
-35 -46 -56 -75 -21 -29 -43 -57 -50 -63 -6 -5 -21 -27 -34 -47 -12 -21 -26
-38 -31 -38 -5 0 -10 -6 -12 -14 -2 -8 -18 -31 -35 -52 -28 -34 -128 -159
-151 -189 -41 -54 -108 -141 -112 -145 -3 -3 -9 -12 -15 -21 -20 -32 -94 -144
-102 -154 -5 -5 -19 -28 -33 -49 -24 -39 -25 -40 -235 -136 -22 -10 -65 -29
-95 -43 -30 -14 -120 -54 -200 -90 -80 -36 -170 -76 -200 -90 -30 -14 -77 -35
-105 -47 -27 -12 -72 -32 -100 -45 -143 -67 -207 -95 -230 -101 -14 -3 -25 -9
-25 -13 0 -4 -17 -13 -37 -20 -21 -7 -74 -30 -118 -51 -44 -20 -98 -45 -120
-55 -22 -9 -62 -28 -90 -40 -71 -33 -164 -74 -205 -92 -19 -8 -42 -19 -50 -24
-8 -5 -22 -12 -30 -15 -27 -11 -74 -31 -133 -58 -31 -14 -59 -26 -62 -26 -3 0
-36 -16 -74 -35 -38 -19 -72 -35 -75 -35 -5 0 -76 -32 -201 -90 -45 -21 -72
-43 -105 -85 -25 -31 -52 -65 -62 -76 -9 -11 -31 -39 -50 -61 -18 -23 -55 -69
-83 -103 -27 -34 -66 -81 -85 -105 -19 -24 -44 -54 -55 -67 -11 -13 -30 -35
-42 -51 -108 -135 -218 -268 -225 -270 -4 -2 -8 -10 -8 -17 0 -7 -3 -15 -7
-17 -5 -2 -28 -28 -53 -58 -25 -30 -49 -60 -55 -66 -5 -6 -23 -29 -40 -50 -16
-21 -42 -52 -56 -69 -14 -16 -126 -154 -248 -305 -123 -151 -238 -293 -256
-315 -18 -22 -126 -155 -240 -295 -114 -140 -226 -277 -249 -303 -22 -27 -45
-56 -50 -65 -5 -10 -13 -19 -16 -22 -7 -4 -109 -129 -182 -221 -14 -19 -36
-45 -48 -59 -12 -14 -34 -40 -48 -59 -15 -19 -46 -57 -69 -85 -165 -203 -202
-248 -233 -286 -32 -41 -170 -209 -208 -255 -9 -11 -44 -54 -76 -95 -33 -41
-62 -77 -65 -80 -4 -3 -42 -50 -86 -105 -44 -55 -82 -102 -85 -105 -3 -3 -23
-27 -45 -55 -21 -27 -42 -52 -45 -55 -3 -3 -43 -52 -90 -110 -46 -58 -89 -110
-95 -116 -5 -7 -21 -26 -35 -44 -14 -18 -30 -37 -35 -44 -10 -10 -328 -400
-403 -494 -19 -22 -41 -50 -50 -60 -18 -20 -64 -77 -94 -115 -33 -41 -58 -72
-84 -102 -14 -16 -37 -46 -52 -65 -15 -19 -29 -37 -32 -40 -5 -5 -149 -187
-185 -235 -8 -10 -15 -22 -15 -26 0 -5 348 117 450 158 8 4 17 7 20 8 3 1 12
5 20 8 36 16 297 109 311 112 9 2 35 13 58 24 22 12 41 19 41 17 0 -3 27 6 60
19 33 13 60 20 60 17 0 -4 4 -2 8 3 4 6 23 16 42 22 48 15 368 132 405 148 30
13 70 27 90 31 6 1 28 10 50 20 22 10 49 19 59 21 11 2 24 7 30 12 6 5 29 14
51 21 22 7 74 25 115 41 41 15 127 46 190 69 63 23 129 48 145 55 17 7 48 18
70 25 22 7 45 16 50 20 6 4 26 11 45 15 19 4 41 11 50 16 25 15 291 110 309
111 9 1 47 -13 84 -30 38 -18 70 -32 72 -32 2 0 46 -20 99 -45 53 -25 99 -45
101 -45 3 0 33 -13 67 -29 35 -16 90 -41 123 -56 100 -45 117 -52 208 -94 49
-23 91 -41 93 -41 3 0 49 -21 102 -46 53 -25 102 -47 107 -48 6 -2 35 -14 65
-28 147 -69 348 -159 352 -158 2 1 35 -14 73 -33 39 -19 104 -49 145 -67 41
-18 102 -45 135 -60 33 -15 89 -40 125 -56 117 -51 145 -68 146 -89 1 -11 5
-58 9 -105 3 -47 8 -110 11 -140 2 -30 6 -73 9 -95 3 -22 7 -62 10 -90 3 -27
7 -66 10 -85 3 -19 7 -54 9 -77 2 -22 6 -45 9 -50 3 -5 8 -40 12 -79 l6 -69
-83 -87 c-46 -48 -90 -95 -98 -105 -36 -42 -173 -209 -183 -223 -46 -60 -67
-89 -67 -94 0 -3 -9 -16 -20 -28 -39 -44 -50 -58 -50 -62 0 -3 -19 -33 -43
-68 -52 -76 -177 -286 -177 -298 0 -5 -3 -10 -7 -12 -9 -3 -23 -28 -106 -186
-32 -63 -60 -119 -61 -125 -2 -7 -9 -25 -16 -42 -7 -16 -15 -39 -17 -50 -2
-10 -7 -22 -11 -25 -4 -3 -16 -32 -26 -65 -10 -33 -27 -80 -38 -104 -20 -44
-63 -170 -78 -226 -5 -16 -15 -55 -23 -85 -13 -49 -29 -118 -32 -145 -1 -5 -5
-17 -8 -25 -6 -14 -11 -44 -22 -115 -3 -16 -7 -41 -10 -55 -3 -14 -7 -43 -11
-65 -3 -22 -7 -47 -9 -55 -2 -8 -7 -46 -11 -85 -9 -91 -9 -93 -17 -101 -3 -4
-2 -14 3 -24 5 -10 7 -20 4 -23 -22 -22 -22 -573 -1 -722 3 -16 8 -61 13 -100
11 -91 10 -86 17 -115 3 -14 9 -43 12 -65 9 -64 12 -77 25 -125 7 -25 13 -52
15 -61 7 -36 35 -122 43 -133 8 -9 22 -55 22 -71 1 -3 9 -25 20 -50 11 -25 17
-45 14 -45 -2 0 3 -14 12 -31 9 -17 18 -43 20 -58 3 -14 12 -42 21 -61 9 -19
17 -41 18 -50 1 -8 7 -28 15 -45 7 -16 15 -40 17 -52 2 -13 12 -43 23 -68 11
-25 17 -45 13 -45 -3 0 2 -12 11 -26 10 -14 18 -35 20 -47 3 -24 12 -53 27
-79 5 -10 9 -25 9 -33 0 -9 7 -29 15 -44 8 -16 16 -39 19 -52 6 -30 49 -147
63 -174 6 -11 8 -26 6 -33 -3 -7 3 -22 13 -33 9 -10 15 -19 11 -19 -3 0 4 -24
15 -52 10 -29 20 -57 22 -63 7 -31 30 -92 39 -102 5 -7 7 -13 3 -13 -3 0 0
-16 8 -35 9 -20 16 -39 17 -43 4 -16 11 -38 21 -62 5 -14 12 -36 14 -49 3 -13
12 -37 20 -54 9 -16 18 -41 20 -56 3 -14 12 -39 20 -55 8 -16 14 -36 14 -45 0
-9 7 -29 15 -45 8 -15 15 -40 15 -53 0 -23 3 -25 33 -19 17 4 41 7 52 7 11 0
34 4 50 9 30 9 54 13 157 30 32 4 61 11 66 14 8 5 49 11 132 21 14 1 32 6 41
9 9 4 29 9 45 11 16 2 29 4 29 5 0 1 11 3 25 5 14 2 50 9 80 14 30 6 72 13 94
16 21 3 42 7 47 10 4 3 27 8 50 10 23 2 51 8 63 12 11 3 30 7 41 8 11 0 29 4
40 7 11 4 40 9 65 12 25 3 60 10 79 15 19 6 38 8 42 5 5 -3 17 0 27 5 11 6 37
12 58 15 21 2 39 5 39 6 0 1 13 3 30 5 16 2 50 9 75 14 25 6 59 13 75 15 17 3
40 7 51 10 12 2 37 7 55 10 19 3 57 10 84 16 28 6 64 13 80 16 17 2 41 7 55
11 37 9 61 12 98 14 17 0 35 5 38 10 3 5 9 7 14 4 4 -2 52 8 106 25 53 16 101
27 106 24 4 -3 8 -1 8 4 0 5 21 15 48 22 155 43 480 198 697 331 17 10 45 26
63 36 17 9 32 20 32 25 0 4 6 8 14 8 8 0 16 3 18 8 2 4 42 33 89 64 47 32 124
89 171 127 47 39 89 67 92 64 3 -4 6 -2 6 3 0 6 41 46 92 90 99 84 272 256
325 320 93 114 166 199 174 202 5 2 9 8 9 14 0 5 6 15 13 22 44 44 136 179
213 311 38 66 74 127 79 136 6 10 17 30 26 46 40 71 62 110 75 128 8 11 14 27
14 36 0 9 6 22 14 28 8 7 17 24 21 39 4 15 13 34 20 42 7 8 15 20 16 25 3 12
24 64 49 120 39 86 120 295 120 308 0 3 5 18 12 34 6 15 12 31 13 36 2 4 3 8
5 10 1 1 3 9 5 17 2 8 6 24 9 35 2 11 11 39 19 62 9 22 13 44 10 47 -4 3 -2 6
3 6 5 0 10 9 11 21 5 66 20 83 101 114 42 16 79 30 82 30 3 1 27 11 54 23 27
12 50 22 52 22 5 0 155 70 274 128 118 57 131 62 140 51 3 -3 84 -63 180 -133
96 -69 185 -134 196 -144 12 -9 29 -21 37 -27 21 -13 387 -282 409 -300 10 -8
35 -25 56 -38 20 -14 43 -32 51 -41 7 -9 19 -16 26 -16 8 0 15 -3 17 -8 2 -4
37 -32 78 -62 41 -30 76 -58 78 -62 2 -5 8 -8 14 -8 6 0 24 -12 42 -26 29 -24
111 -86 172 -129 81 -58 149 -111 152 -117 2 -5 8 -8 12 -8 5 0 49 -29 97 -65
48 -36 99 -73 112 -83 50 -35 78 -61 79 -74 0 -7 2 -22 5 -33 2 -11 8 -47 13
-80 4 -33 8 -62 9 -65 0 -3 5 -27 10 -55 4 -27 10 -57 11 -65 2 -8 6 -35 9
-60 3 -25 8 -52 10 -60 2 -8 6 -33 9 -55 3 -22 7 -51 10 -65 3 -14 7 -43 11
-65 3 -22 7 -47 10 -55 2 -8 6 -35 9 -60 3 -25 8 -56 11 -70 3 -14 7 -41 10
-60 3 -19 7 -46 9 -60 3 -14 7 -41 10 -60 3 -19 8 -46 10 -60 2 -14 9 -59 16
-100 6 -41 15 -95 20 -120 4 -25 14 -79 20 -120 6 -41 14 -86 16 -100 2 -14 7
-41 10 -60 3 -19 7 -46 9 -60 3 -14 7 -42 10 -64 4 -21 9 -48 11 -60 2 -11 7
-43 10 -71 4 -27 10 -57 15 -66 4 -9 6 -18 4 -21 -3 -3 -1 -27 4 -54 12 -62
22 -130 26 -171 2 -18 6 -36 9 -41 2 -4 7 -30 10 -58 3 -27 8 -61 11 -76 11
-56 15 -84 20 -123 3 -22 8 -51 10 -65 3 -14 8 -40 10 -57 3 -18 12 -72 20
-120 9 -49 19 -108 22 -133 9 -76 17 -76 48 0 16 39 32 73 37 76 4 3 8 12 8
21 0 8 7 31 16 51 9 21 23 51 30 69 8 17 14 38 14 46 0 9 4 18 9 21 5 3 11 16
15 29 3 13 13 41 22 63 10 21 19 44 20 49 2 9 50 131 77 195 5 14 11 30 12 35
2 6 28 74 59 151 31 78 56 144 56 148 0 3 9 25 19 49 11 23 27 65 37 92 10 28
24 61 31 75 7 14 13 31 13 38 0 7 5 20 10 30 6 9 22 49 36 87 36 97 44 119
114 295 33 85 62 160 64 165 2 6 8 21 13 35 6 14 32 81 58 150 26 69 53 137
61 152 8 14 14 33 14 42 0 9 5 16 11 16 5 0 8 4 5 8 -3 5 1 20 9 35 8 15 12
27 9 27 -3 0 2 12 10 28 8 15 35 83 61 152 26 69 53 139 61 157 8 17 14 34 14
38 0 4 7 21 15 38 8 18 28 68 45 112 17 44 34 89 39 100 4 11 13 34 18 50 13
36 90 231 102 260 5 11 41 103 81 205 39 102 96 247 126 323 30 76 54 140 54
143 0 3 6 20 14 37 8 18 49 122 91 232 42 110 84 215 92 234 8 18 16 39 18 45
2 12 21 61 34 91 5 11 37 92 71 180 34 88 68 174 76 192 8 17 14 36 14 42 0 6
4 19 10 29 5 9 26 60 45 112 20 52 40 104 45 115 17 38 81 200 85 215 2 8 19
53 37 100 19 47 49 123 67 170 18 47 37 94 42 105 6 12 11 27 13 35 1 8 9 29
16 45 7 17 21 49 31 72 11 24 19 45 19 49 0 5 61 165 95 249 5 11 9 22 9 25 1
3 5 10 9 17 7 12 3 102 -9 203 -3 25 -8 68 -9 95 -7 89 -13 169 -19 220 -3 28
-8 79 -11 115 -2 36 -7 83 -9 105 -2 22 -7 76 -11 120 -3 44 -8 98 -10 120 -5
40 -9 88 -20 222 -6 72 -11 125 -20 208 -3 28 -7 77 -10 110 -13 169 -16 203
-20 237 -3 21 -7 70 -10 110 -3 40 -7 91 -10 113 -2 22 -7 72 -10 110 -3 39
-8 90 -10 115 -8 91 -16 176 -20 215 -2 22 -7 77 -11 121 l-6 82 74 148 c41
82 82 169 92 194 10 25 22 54 27 65 4 11 14 36 23 55 8 19 29 71 47 115 17 44
36 91 42 105 5 14 11 30 12 35 2 6 14 34 29 64 14 30 26 60 26 67 0 7 7 20 16
28 8 9 13 16 10 16 -3 0 5 24 18 53 34 78 39 90 43 112 2 10 8 22 14 26 6 3
10 10 10 15 -1 10 23 80 44 129 20 46 47 129 48 143 0 6 4 12 9 12 5 0 8 6 7
13 -1 6 1 19 4 27 10 22 87 262 91 280 4 24 26 104 33 120 8 19 10 29 17 58 3
13 8 32 11 42 3 10 8 27 10 37 2 10 12 45 21 78 9 33 18 67 19 75 2 8 4 15 5
15 1 0 3 11 6 24 2 13 14 60 25 105 12 45 23 92 25 106 3 14 11 50 19 80 8 30
17 71 20 90 3 19 11 55 16 80 6 25 13 56 15 70 2 14 7 36 11 50 3 14 7 32 8
40 3 23 14 82 20 110 3 14 8 41 10 60 3 19 7 44 10 55 2 11 7 43 11 70 3 28 8
53 10 56 2 4 6 31 9 61 3 30 8 66 11 79 3 13 7 44 10 68 2 24 7 60 9 80 3 20
8 56 10 81 3 25 7 61 10 80 2 19 7 65 11 102 3 37 8 82 11 100 9 61 12 1232 4
1298 -5 36 -12 99 -16 140 -3 41 -8 84 -10 95 -3 11 -6 40 -9 65 -2 25 -7 56
-10 70 -3 14 -8 43 -10 65 -7 59 -16 98 -25 110 -11 13 -32 101 -36 145 -2 20
-10 60 -20 90 -9 30 -18 73 -21 95 -8 62 -15 96 -27 125 -4 8 -9 26 -11 40 -3
14 -5 25 -6 25 -1 0 -3 18 -5 40 -1 22 -10 61 -18 87 -9 25 -13 49 -10 52 4 3
2 6 -4 6 -6 0 -9 12 -7 28 2 15 -3 48 -12 73 -21 64 -26 89 -28 130 -2 19 -6
41 -10 47 -4 7 -5 12 -1 12 3 0 1 9 -5 21 -15 27 -22 55 -25 109 -2 25 -11 62
-19 83 -9 20 -13 37 -10 37 4 0 2 6 -3 13 -5 6 -11 32 -12 57 -1 25 -10 70
-21 100 -10 30 -21 78 -24 105 -7 63 -10 77 -19 92 -11 17 -17 49 -21 103 -2
25 -11 63 -20 85 -9 21 -19 65 -21 98 -3 32 -8 64 -12 70 -15 25 -40 138 -31
143 5 3 4 12 -3 20 -6 8 -9 14 -6 14 3 0 -3 24 -13 53 -10 28 -21 75 -24 102
-3 28 -12 68 -21 88 -8 20 -15 39 -15 42 0 3 0 6 -1 8 0 1 -2 28 -4 60 -2 32
-8 64 -13 70 -13 16 -22 53 -28 112 -3 28 -12 66 -19 86 -8 20 -17 65 -21 100
-3 35 -10 69 -14 74 -12 17 -27 83 -34 155 -2 19 -11 55 -20 80 -9 25 -18 68
-20 95 -2 28 -10 66 -18 85 -8 19 -16 38 -16 43 -1 4 -2 8 -3 10 0 1 -2 28 -4
60 -2 32 -9 64 -15 72 -7 8 -9 15 -5 15 4 0 2 6 -5 14 -6 8 -12 40 -13 70 -2
59 -7 63 -48 41z"/>
</g>
</svg>
