<?xml version="1.0" standalone="no"?>
<!DOCTYPE svg PUBLIC "-//W3C//DTD SVG 1.1//EN" "http://www.w3.org/Graphics/SVG/1.1/DTD/svg11.dtd" >
<svg xmlns="http://www.w3.org/2000/svg" xmlns:xlink="http://www.w3.org/1999/xlink" version="1.1">
<metadata>
Created by FontForge 20150824 at Fri Nov  4 11:35:48 2016
 By Everything Fonts
Copyright (c) 1990 Adobe Systems Incorporated.  All Rights Reserved.Garth Graphic is a registered trademark of AGFA Compugraphic.
</metadata>
<defs>
<font id="GarthGraphic" horiz-adv-x="537" >
  <font-face 
    font-family="Garth Graphic"
    font-weight="500"
    font-stretch="normal"
    units-per-em="1000"
    panose-1="0 0 0 0 0 0 0 0 0 0"
    ascent="800"
    descent="-200"
    x-height="450"
    cap-height="687"
    bbox="-66 -250 1043 952"
    underline-thickness="50"
    underline-position="-100"
    stemh="40"
    stemv="80"
    unicode-range="U+0020-FB02"
  />
<missing-glyph horiz-adv-x="296" 
 />
    <glyph glyph-name=".notdef" horiz-adv-x="296" 
 />
    <glyph glyph-name="space" unicode=" " horiz-adv-x="296" 
 />
    <glyph glyph-name="exclam" unicode="!" horiz-adv-x="296" 
d="M150 -17c-31 0 -57 26 -57 57s26 57 57 57c32 0 57 -26 57 -57s-25 -57 -57 -57zM136 178l-8 6c0 160 -17 368 -26 477l87 38l11 -6c-19 -224 -31 -388 -31 -504z" />
    <glyph glyph-name="quotedbl" unicode="&#x22;" horiz-adv-x="407" 
d="M153 428h-51c0 74 -12 195 -20 246l14 11c11 -1 22 -3 33 -3s22 2 33 3l11 -13c-6 -49 -20 -170 -20 -244zM304 428h-51c0 74 -13 195 -20 246l14 11c11 -1 22 -3 33 -3s22 2 33 3l11 -13c-6 -49 -20 -170 -20 -244z" />
    <glyph glyph-name="numbersign" unicode="#" 
d="M44 -7l83 235h-83l-10 10l14 40h96l38 105h-82l-10 11l14 39h95l80 230h43l8 -16l-76 -214h111l81 230h43l8 -16l-77 -214h88l10 -13l-13 -37h-103l-38 -105h92l7 -10l-14 -40h-102l-88 -245h-41l-10 10l84 235h-110l-87 -245h-41zM237 383l-38 -105h110l38 105h-110z
" />
    <glyph glyph-name="dollar" unicode="$" 
d="M245 -64v81c-59 7 -103 18 -142 46c0 41 -3 83 -7 124l23 33l17 -8c13 -73 26 -140 109 -149v246c-53 29 -137 66 -137 169c0 99 80 144 137 154v56h41v-56c35 -5 66 -9 103 -25c5 -25 10 -54 21 -100l-21 -27l-16 8c-22 55 -34 84 -87 98v-208c69 -39 155 -76 155 -183
c0 -117 -89 -166 -155 -178v-81h-41zM245 401v185c-37 -6 -77 -37 -77 -84c0 -64 46 -83 77 -101zM286 287v-224c42 9 95 33 95 108c0 72 -57 100 -95 116z" />
    <glyph glyph-name="percent" unicode="%" horiz-adv-x="889" 
d="M665 0c-77 0 -144 56 -144 200c0 139 67 203 144 203c84 0 145 -66 145 -203c0 -139 -74 -200 -145 -200zM591 200c0 -131 29 -160 74 -160c55 0 75 53 75 160c0 135 -41 163 -75 163c-73 0 -74 -110 -74 -163zM207 -5l373 600l-2 2c-41 -18 -87 -29 -133 -29
c-33 0 -66 8 -99 16c12 -34 22 -73 22 -125c0 -139 -75 -199 -145 -199c-78 0 -144 55 -144 199c0 139 67 204 144 204c37 0 60 -19 98 -34c27 -12 62 -21 116 -21c98 0 148 26 189 55h42l5 -13l-413 -667h-45zM149 459c0 -131 29 -159 74 -159c55 0 75 53 75 159
c0 136 -41 164 -75 164c-73 0 -74 -110 -74 -164z" />
    <glyph glyph-name="ampersand" unicode="&#x26;" horiz-adv-x="741" 
d="M731 92l12 -10c-24 -44 -57 -99 -124 -99c-47 0 -101 44 -156 84c-27 -21 -95 -84 -206 -84c-124 0 -204 81 -204 174s90 162 142 206c-10 24 -41 85 -41 156c0 96 65 170 164 170c72 0 113 -51 113 -105c0 -97 -112 -176 -152 -208c69 -97 81 -109 199 -218
c19 34 35 73 35 112c0 48 -11 71 -94 71l-5 12l28 27c41 -2 82 -5 124 -5c46 0 93 1 139 5l9 -9l-30 -30c-73 -2 -93 -7 -107 -47l-26 -74c-10 -30 -25 -58 -39 -86c38 -30 104 -81 149 -81c27 0 41 14 70 39zM133 187c0 -78 62 -144 158 -144c48 0 95 22 135 51
c-111 100 -130 118 -210 230c-31 -29 -83 -72 -83 -137zM224 545c0 -58 24 -106 39 -134c37 34 98 93 98 157c0 46 -31 71 -63 71c-53 0 -74 -45 -74 -94z" />
    <glyph glyph-name="quoteright" unicode="&#x2019;" horiz-adv-x="296" 
d="M103 420l-10 12c14 56 25 150 25 208l72 59l12 -15l-58 -235z" />
    <glyph glyph-name="parenleft" unicode="(" horiz-adv-x="296" 
d="M168 -238l-12 9c-29 132 -59 265 -59 399c0 207 33 328 67 463l53 66l10 -11c-40 -158 -65 -254 -65 -409c0 -175 20 -255 65 -471z" />
    <glyph glyph-name="parenright" unicode=")" horiz-adv-x="296" 
d="M79 -238l-10 10c41 159 66 255 66 410c0 174 -20 254 -65 471l58 46l12 -9c29 -132 60 -265 60 -400c0 -207 -33 -327 -68 -462z" />
    <glyph glyph-name="asterisk" unicode="*" 
d="M237 355l-8 18c18 68 24 89 24 115c0 2 0 4 -2 4c-6 0 -54 -42 -87 -76h-22l-24 44l13 18c58 12 112 36 112 41s-55 24 -116 41l-10 20l24 43h24c33 -34 76 -76 83 -76c4 0 7 4 7 8c0 25 -7 44 -26 109l8 18h60l7 -18c-15 -61 -21 -94 -21 -109c0 -4 0 -10 5 -10
c7 0 52 38 83 78h24l25 -43l-11 -20c-56 -9 -111 -35 -111 -40s53 -29 108 -42l13 -18l-24 -44h-22c-36 33 -84 77 -90 77c-4 0 -4 -3 -4 -4c0 -17 7 -52 25 -116l-7 -18h-60z" />
    <glyph glyph-name="plus" unicode="+" horiz-adv-x="889" 
d="M414 -17v219h-219v60h219v219h60v-219h220v-60h-220v-219h-60z" />
    <glyph glyph-name="comma" unicode="," horiz-adv-x="296" 
d="M103 -182l-10 12c13 56 24 151 24 208l73 59l12 -15l-59 -235z" />
    <glyph glyph-name="hyphen" unicode="-" horiz-adv-x="296" 
d="M26 219l51 59h189l4 -8l-51 -61h-187z" />
    <glyph glyph-name="period" unicode="." horiz-adv-x="296" 
d="M148 -17c-32 0 -57 25 -57 57c0 31 25 57 57 57c31 0 57 -26 57 -57c0 -32 -26 -57 -57 -57z" />
    <glyph glyph-name="slash" unicode="/" horiz-adv-x="296" 
d="M16 -3l200 714l49 8l9 -10l-202 -719l-45 -7z" />
    <glyph glyph-name="zero" unicode="0" 
d="M268 -17c-163 1 -225 150 -225 318c0 167 59 362 225 362c171 0 225 -185 225 -342c0 -184 -77 -338 -225 -338zM123 301c0 -170 41 -278 145 -278c109 0 145 122 145 298c0 183 -41 302 -145 302c-110 0 -145 -145 -145 -322z" />
    <glyph glyph-name="one" unicode="1" 
d="M247 124v365c0 39 -12 55 -56 55c-18 0 -41 -3 -62 -5l-10 7l21 34c76 23 122 42 171 83l16 -8v-531c0 -81 14 -90 123 -90l5 -12l-28 -27c-42 2 -86 5 -128 5c-57 0 -115 -1 -172 -5l-9 9l30 30c64 10 99 2 99 90z" />
    <glyph glyph-name="two" unicode="2" 
d="M45 -3l-16 35c90 163 333 320 333 472c0 68 -43 113 -114 113c-66 0 -99 -34 -99 -80c0 -15 0 -30 5 -46l-60 -24l-18 8c-2 7 -2 14 -2 21c0 96 58 167 197 167c91 0 191 -34 191 -154c0 -180 -256 -289 -348 -441h110c188 0 187 15 235 120l34 13l8 -7
c-28 -89 -38 -127 -52 -197c-67 1 -134 3 -200 3c-68 0 -136 -2 -204 -3z" />
    <glyph glyph-name="three" unicode="3" 
d="M106 464l-15 5c0 8 -2 17 -2 25c0 99 61 169 193 169c115 0 172 -70 172 -147c0 -98 -85 -142 -124 -165c60 -13 153 -45 153 -172c0 -106 -86 -196 -206 -196c-139 0 -208 88 -223 149l70 44l15 -11c-2 -13 -2 -22 -2 -33c0 -41 55 -109 137 -109c78 0 129 52 129 134
c0 143 -130 154 -212 160l-8 8l19 30c71 13 172 33 172 151c0 77 -41 117 -118 117c-62 0 -97 -34 -97 -110c0 -8 4 -14 5 -23z" />
    <glyph glyph-name="four" unicode="4" 
d="M313 -9v147h-274l-10 65l314 460h45v-465h20c43 0 62 7 84 51l26 6l9 -7l-40 -110h-99v-135l-65 -20zM311 545l-235 -347h237v347h-2z" />
    <glyph glyph-name="five" unicode="5" 
d="M456 571h-300c0 -58 -6 -99 -25 -218c46 30 100 56 155 56c122 0 209 -87 209 -204c0 -124 -99 -222 -233 -222c-132 0 -185 98 -212 144l73 50l16 -16c3 -37 16 -138 125 -138c79 0 151 58 151 161c0 107 -74 170 -159 170c-66 0 -119 -41 -141 -58l-30 18
c21 128 28 179 28 273c0 21 0 44 -2 64l69 -3c22 -1 45 -2 68 -2c148 0 164 0 215 27h19l5 -3z" />
    <glyph glyph-name="six" unicode="6" 
d="M465 619l-43 -46c-36 16 -74 40 -114 40c-127 0 -172 -144 -172 -255c0 -13 2 -26 2 -39h2c16 25 63 95 176 95c108 0 183 -73 183 -196c0 -166 -117 -235 -210 -235c-123 0 -233 93 -233 316c0 241 117 364 274 364c46 0 92 -14 135 -31v-13zM150 241
c0 -137 50 -218 140 -218c75 0 129 51 129 165c0 117 -60 176 -140 176c-85 0 -129 -75 -129 -123z" />
    <glyph glyph-name="seven" unicode="7" 
d="M181 -17l-9 8c-1 14 -3 25 -3 45c0 144 107 298 280 535h-153c-136 0 -160 0 -200 -115l-30 -6l-16 8c26 61 40 121 58 193c49 -2 100 -5 219 -5c62 0 120 0 186 5l17 -44c-159 -229 -263 -332 -263 -602z" />
    <glyph glyph-name="eight" unicode="8" 
d="M273 -17c-131 0 -210 82 -210 176c0 98 90 148 140 173c-50 25 -116 65 -116 149c0 92 76 181 200 181c110 0 173 -71 173 -150c0 -92 -95 -144 -124 -164c64 -30 155 -76 155 -182c0 -90 -75 -183 -218 -183zM296 278l-63 32c-29 -17 -90 -55 -90 -136
c0 -94 53 -151 133 -151c85 0 135 53 135 118c0 70 -66 113 -115 137zM157 514c0 -80 71 -109 141 -145c29 17 92 49 92 130c0 76 -47 123 -115 123c-63 0 -118 -44 -118 -108z" />
    <glyph glyph-name="nine" unicode="9" 
d="M88 27l43 46c36 -17 74 -40 113 -40c128 0 173 143 173 255c0 13 -3 26 -3 38h-2c-15 -25 -62 -95 -175 -95c-108 0 -184 73 -184 197c0 165 117 235 211 235c123 0 233 -93 233 -316c0 -241 -117 -364 -274 -364c-46 0 -92 14 -135 30v14zM133 457
c0 -106 61 -166 141 -166c85 0 129 65 129 114c0 136 -51 218 -141 218c-74 0 -129 -51 -129 -166z" />
    <glyph glyph-name="colon" unicode=":" horiz-adv-x="296" 
d="M148 -17c-32 0 -57 25 -57 57c0 31 25 57 57 57c31 0 57 -26 57 -57c0 -32 -26 -57 -57 -57zM148 353c-32 0 -57 25 -57 57c0 31 25 57 57 57c31 0 57 -26 57 -57c0 -32 -26 -57 -57 -57z" />
    <glyph glyph-name="semicolon" unicode=";" horiz-adv-x="296" 
d="M98 -182l-10 12c13 56 24 151 24 208l73 59l12 -15l-59 -235zM151 353c-32 0 -57 25 -57 57c0 31 25 57 57 57c31 0 57 -26 57 -57c0 -32 -26 -57 -57 -57z" />
    <glyph glyph-name="less" unicode="&#x3c;" horiz-adv-x="889" 
d="M665 0l-486 215v54l486 216v-77l-387 -166l387 -165v-77z" />
    <glyph glyph-name="equal" unicode="=" horiz-adv-x="889" 
d="M194 262v60h501v-60h-501zM194 142v60h501v-60h-501z" />
    <glyph glyph-name="greater" unicode="&#x3e;" horiz-adv-x="889" 
d="M224 0v77l387 165l-387 166v77l486 -216v-54z" />
    <glyph glyph-name="question" unicode="?" horiz-adv-x="407" 
d="M151 166l-9 8c0 186 160 221 160 362c0 76 -41 117 -100 117c-60 0 -95 -31 -95 -84c0 -10 4 -20 5 -31l-59 -23l-13 8c-1 9 -3 17 -3 26c0 92 56 150 175 150c118 0 177 -70 177 -151c0 -138 -200 -221 -200 -335v-32zM173 -17c-33 0 -58 26 -58 57s25 57 58 57
c31 0 56 -26 56 -57s-25 -57 -56 -57z" />
    <glyph glyph-name="at" unicode="@" horiz-adv-x="889" 
d="M748 14l26 -23c-26 -30 -153 -124 -323 -124c-238 0 -412 136 -412 331c0 237 207 446 448 446c203 0 362 -133 362 -324c0 -180 -142 -320 -281 -320c-64 0 -72 46 -73 71c-13 -15 -54 -65 -130 -65c-73 0 -132 49 -132 143c0 145 128 327 258 327c82 0 107 -55 117 -74
l22 54h86l-83 -207c-23 -56 -61 -150 -61 -170c0 -16 7 -27 30 -27c73 0 200 98 200 268c0 172 -145 273 -311 273c-194 0 -384 -197 -384 -394c0 -164 134 -287 348 -287c182 0 279 91 293 102zM312 114c0 -48 30 -67 70 -67c63 0 93 59 109 85c57 92 84 213 84 241
c0 31 -21 64 -62 64c-96 0 -201 -228 -201 -323z" />
    <glyph glyph-name="A" unicode="A" horiz-adv-x="722" 
d="M120 110l220 561l43 28l13 -6l223 -600c15 -40 25 -57 90 -59l5 -12l-27 -27c-38 2 -75 5 -113 5c-44 0 -88 -1 -130 -5l-10 9l31 30c37 4 57 15 57 39c0 10 -1 22 -5 33l-50 137h-237l-38 -105c-6 -18 -11 -39 -11 -56c0 -33 24 -46 83 -48l5 -12l-28 -27
c-40 2 -81 5 -122 5c-34 0 -69 -1 -102 -5l-10 9l30 30c35 0 63 24 83 76zM348 572l-101 -283h203l-100 283h-2z" />
    <glyph glyph-name="B" unicode="B" horiz-adv-x="648" 
d="M232 635v-261h39c92 0 199 16 199 136c0 107 -57 129 -196 129c-14 0 -28 -3 -42 -4zM138 124v434c0 80 -12 90 -100 90l-4 12l27 27c43 -2 86 -5 129 -5c64 0 127 3 191 3c84 0 183 -35 183 -158c0 -108 -99 -148 -155 -164v-2c80 -21 199 -53 199 -177
c0 -150 -154 -189 -261 -189c-52 0 -104 5 -156 5c-50 0 -99 -1 -148 -5l-9 9l30 30c47 8 74 2 74 90zM232 328v-204c0 -48 7 -81 99 -81c117 0 172 59 172 140c0 86 -67 145 -219 145h-52z" />
    <glyph glyph-name="C" unicode="C" horiz-adv-x="704" 
d="M667 196l8 -8c-15 -53 -88 -205 -283 -205c-201 0 -345 162 -345 361c0 210 139 355 376 355c78 0 153 -24 228 -44v-75c0 -36 5 -72 8 -108l-25 -31h-14c-11 66 -38 208 -221 208c-139 0 -247 -96 -247 -296c0 -144 75 -310 257 -310c136 0 202 113 221 139z" />
    <glyph glyph-name="D" unicode="D" horiz-adv-x="796" 
d="M232 639v-537c0 -41 14 -59 83 -59c230 0 330 84 330 285c0 304 -202 310 -413 311zM138 102v456c0 80 -12 90 -100 90l-4 12l27 27c43 -2 86 -5 129 -5c63 0 127 3 190 3c147 0 370 -59 370 -349c0 -325 -280 -341 -416 -341c-48 0 -96 5 -144 5c-49 0 -99 -1 -147 -5
l-9 9l30 30c24 1 74 1 74 68z" />
    <glyph glyph-name="E" unicode="E" horiz-adv-x="630" 
d="M138 130v428c0 80 -12 90 -100 90l-4 12l27 27c42 -2 85 -5 128 -5c119 0 239 3 359 5c5 -70 9 -106 19 -177l-38 -23l-9 7c-14 111 -20 142 -212 142c-25 0 -50 -2 -76 -4v-255h101c70 0 78 8 78 97l38 23l8 -5c-2 -47 -5 -105 -5 -157c0 -35 3 -69 5 -105l-37 -23
l-9 10c0 97 -17 114 -78 114h-101v-201c0 -84 27 -84 153 -84c129 0 132 92 145 166l42 29l10 -10c-12 -78 -17 -113 -29 -236c-124 2 -249 5 -373 5c-46 0 -91 -3 -137 -5l-9 9l30 30c56 6 74 17 74 96z" />
    <glyph glyph-name="F" unicode="F" horiz-adv-x="593" 
d="M138 124v434c0 80 -12 90 -100 90l-4 12l27 27c42 -2 85 -5 128 -5c119 0 239 3 359 5c5 -70 9 -106 19 -177l-38 -23l-9 7c-14 111 -20 142 -212 142c-25 0 -50 -2 -76 -4v-255h101c70 0 78 8 78 97l38 23l8 -5c-2 -47 -5 -105 -5 -157c0 -35 3 -69 5 -105l-37 -23
l-9 10c0 97 -17 114 -78 114h-101v-207c0 -81 13 -90 111 -90l5 -12l-28 -27c-46 2 -93 5 -140 5c-46 0 -92 -1 -137 -5l-9 9l30 30c55 8 74 12 74 90z" />
    <glyph glyph-name="G" unicode="G" horiz-adv-x="796" 
d="M685 47l-3 -9c-45 -17 -146 -55 -264 -55c-266 0 -369 209 -369 368c0 194 132 348 368 348c108 0 171 -20 239 -40v-79c0 -36 5 -72 9 -108l-26 -31h-13c-10 66 -40 208 -214 208c-95 0 -258 -38 -258 -289c0 -254 139 -327 284 -327c48 0 96 9 144 22v133
c0 80 -15 90 -121 90l-5 12l28 27c49 -2 98 -5 147 -5c45 0 91 0 137 5l9 -9l-30 -30c-56 -6 -82 -14 -82 -90v-41c0 -55 8 -73 20 -100z" />
    <glyph glyph-name="H" unicode="H" horiz-adv-x="815" 
d="M139 124v434c0 80 -12 90 -100 90l-4 12l27 27c43 -2 86 -5 129 -5c46 0 92 2 137 5l9 -9l-30 -30c-46 -6 -74 -2 -74 -90v-181h349v181c0 80 -12 90 -100 90l-5 12l28 27c42 -2 85 -5 128 -5c46 0 93 0 138 5l9 -9l-30 -30c-43 -4 -74 -2 -74 -90v-434
c0 -81 12 -90 99 -90l5 -12l-27 -27c-43 2 -87 5 -130 5c-45 0 -91 -1 -137 -5l-9 9l30 30c42 6 75 2 75 90v207h-349v-207c0 -81 12 -90 99 -90l5 -12l-27 -27c-43 2 -86 5 -129 5c-46 0 -92 -1 -137 -5l-9 9l30 30c50 7 74 2 74 90z" />
    <glyph glyph-name="I" unicode="I" horiz-adv-x="370" 
d="M138 124v434c0 80 -20 90 -100 90l-4 12l27 27c43 -2 86 -5 129 -5c46 0 92 0 137 5l9 -9l-30 -30c-24 -2 -74 -2 -74 -90v-434c0 -81 12 -90 99 -90l5 -12l-27 -27c-43 2 -86 5 -129 5c-46 0 -92 -1 -137 -5l-9 9l30 30c39 7 74 2 74 90z" />
    <glyph glyph-name="J" unicode="J" horiz-adv-x="370" 
d="M151 -122v680c0 70 -12 90 -100 90l-5 12l27 27c43 -2 87 -5 130 -5c45 0 91 0 137 5l9 -9l-30 -30c-35 -4 -74 -2 -74 -90v-585c0 -56 -50 -223 -180 -223c-37 0 -74 10 -110 20l-3 14l52 62l73 -24c5 -2 20 -3 30 -3c27 0 44 15 44 59z" />
    <glyph glyph-name="K" unicode="K" horiz-adv-x="704" 
d="M140 124v434c0 80 -12 90 -100 90l-5 12l28 27c43 -2 86 -5 129 -5c46 0 92 0 137 5l9 -9l-30 -30c-24 -2 -74 -2 -74 -90v-216c76 56 243 211 243 280c0 16 -6 26 -54 26l-5 12l27 27c43 -2 86 -5 129 -5c35 0 69 0 103 5l9 -9l-30 -30c-81 0 -143 -94 -279 -242
c127 -142 201 -319 260 -358c10 -7 37 -14 60 -14l5 -12l-27 -27c-43 2 -86 5 -129 5s-86 -1 -128 -5l-9 9l30 30c17 0 53 0 53 30c0 43 -163 259 -180 284l-78 -62v-162c0 -81 12 -90 99 -90l5 -12l-27 -27c-43 2 -86 5 -129 5c-46 0 -92 -1 -137 -5l-10 9l30 30
c25 2 75 2 75 90z" />
    <glyph glyph-name="L" unicode="L" horiz-adv-x="611" 
d="M138 130v428c0 80 -12 90 -99 90l-5 12l27 27c43 -2 86 -5 129 -5c53 0 106 0 158 5l9 -9l-30 -30c-60 -5 -95 -9 -95 -90v-428c0 -84 27 -84 153 -84c129 0 132 92 145 166l42 29l10 -10c-12 -78 -17 -113 -29 -236c-124 2 -249 5 -373 5c-46 0 -91 -3 -137 -5l-9 9
l30 30c46 11 74 17 74 96z" />
    <glyph glyph-name="M" unicode="M" horiz-adv-x="963" 
d="M120 136l37 433c1 9 2 19 2 28c0 51 -25 48 -79 51l-5 12l27 27c36 -2 71 -5 106 -5c23 0 46 2 68 5l208 -555l218 555c56 -5 85 -5 109 -5c21 0 50 0 103 5l5 -13l-27 -26c-67 -7 -91 -7 -87 -62l33 -449c6 -93 11 -101 91 -103l4 -12l-27 -27c-39 2 -78 5 -117 5
c-45 0 -90 -1 -134 -5l-9 9l30 30c30 7 72 1 68 71l-28 486h-2l-243 -608h-22l-238 618h-2l-34 -446c-8 -108 12 -121 94 -121l5 -12l-28 -27c-35 2 -70 5 -106 5c-37 0 -75 -1 -112 -5l-9 9l30 30c24 1 62 0 71 102z" />
    <glyph glyph-name="N" unicode="N" horiz-adv-x="796" 
d="M132 136v454c0 56 -32 54 -100 58l-5 12l27 27c36 -2 71 -5 106 -5c23 0 46 2 68 5l378 -541h2v400c0 91 -12 102 -105 102l-5 12l27 27c39 -2 78 -5 118 -5c41 0 82 0 123 5l9 -9l-30 -30c-27 -2 -82 0 -82 -102v-563h-40l-434 606h-2v-453c0 -91 26 -102 105 -102
l5 -12l-27 -27c-39 2 -78 5 -118 5c-41 0 -82 -1 -123 -5l-9 9l30 30c27 1 82 0 82 102z" />
    <glyph glyph-name="O" unicode="O" horiz-adv-x="796" 
d="M403 -17c-207 0 -356 153 -356 374c0 162 136 342 350 342c202 0 351 -169 351 -369c0 -198 -147 -347 -345 -347zM152 343c0 -175 105 -310 254 -310c150 0 237 118 237 280c0 163 -85 336 -254 336c-126 0 -237 -87 -237 -306z" />
    <glyph glyph-name="P" unicode="P" horiz-adv-x="611" 
d="M137 124v434c0 80 -11 90 -99 90l-4 12l27 27c43 -2 86 -5 129 -5c55 0 109 5 164 5c78 0 219 -7 219 -170c0 -116 -88 -214 -243 -214c-33 0 -66 5 -99 9v-188c0 -81 13 -90 111 -90l5 -12l-28 -27c-46 2 -93 5 -140 5c-46 0 -92 -1 -137 -5l-9 9l29 30c39 0 75 0 75 90
zM231 635v-268c31 -9 62 -18 94 -18c92 0 143 53 143 154c0 112 -67 136 -145 136c-31 0 -62 -2 -92 -4z" />
    <glyph glyph-name="Q" unicode="Q" horiz-adv-x="796" 
d="M841 -86l-38 -57c-57 -27 -119 -44 -181 -44c-190 0 -288 65 -424 65c-19 0 -39 -6 -58 -8l-16 15l52 55c148 25 232 39 265 58l-2 2c-9 -3 -18 -5 -27 -6s-18 -2 -30 -2c-224 0 -333 180 -333 348c0 170 124 359 350 359c202 0 351 -169 351 -369
c0 -157 -105 -279 -210 -331c-75 -37 -188 -57 -242 -61v-2c110 -19 219 -53 332 -53c79 0 118 15 203 42zM154 355c0 -192 100 -327 254 -327c150 0 237 121 237 285c0 163 -85 336 -254 336c-126 0 -237 -84 -237 -294z" />
    <glyph glyph-name="R" unicode="R" horiz-adv-x="685" 
d="M137 124v434c0 80 -11 90 -99 90l-4 12l27 27c43 -2 86 -5 129 -5c55 0 109 5 164 5c78 0 219 -7 219 -170c0 -87 -101 -150 -176 -162v-2c94 -43 118 -82 167 -196l31 -74c19 -43 43 -41 88 -49l2 -12l-23 -22h-75c-23 0 -46 -3 -68 -3c-41 125 -75 335 -258 335
c-10 0 -20 -1 -30 -3v-205c0 -81 13 -90 111 -90l5 -12l-28 -27c-46 2 -93 5 -140 5c-46 0 -92 -1 -137 -5l-9 9l29 30c42 2 75 4 75 90zM231 635v-260c13 -1 27 -3 41 -3c103 0 196 44 196 131c0 112 -67 136 -145 136c-31 0 -62 -2 -92 -4z" />
    <glyph glyph-name="S" unicode="S" horiz-adv-x="519" 
d="M430 517l-13 2c-21 57 -49 130 -151 130c-76 0 -118 -49 -118 -107c0 -161 341 -126 341 -349c0 -123 -98 -210 -211 -210c-77 0 -161 17 -226 52c5 20 5 55 5 81c0 25 -2 49 -5 74l28 32l10 -4c13 -66 27 -185 179 -185c91 0 145 61 145 132c0 175 -341 123 -341 343
c0 108 68 191 205 191c53 0 106 -13 156 -29c5 -53 10 -95 21 -124z" />
    <glyph glyph-name="T" unicode="T" horiz-adv-x="648" 
d="M277 124v515h-63c-128 0 -125 -50 -140 -143l-43 -39l-12 11c18 103 20 97 20 219c94 -4 189 -5 283 -5c95 0 199 1 290 5c0 -66 7 -130 17 -194l-43 -36l-12 11c-10 99 0 171 -145 171h-58v-515c0 -81 13 -90 110 -90l5 -12l-27 -27c-47 2 -94 5 -140 5
c-51 0 -102 -1 -152 -5l-10 9l30 30c40 0 90 2 90 90z" />
    <glyph glyph-name="U" unicode="U" horiz-adv-x="815" 
d="M681 558v-326c0 -101 -15 -249 -274 -249c-147 0 -270 48 -270 253v322c0 72 -12 90 -100 90l-5 12l28 27c43 -2 86 -5 129 -5c45 0 92 0 137 5l9 -9l-30 -30c-24 -2 -74 -2 -74 -90v-322c0 -120 43 -203 202 -203c143 0 198 73 198 199v326c0 64 -13 90 -106 90l-5 12
l28 27c39 -2 78 -5 117 -5c37 0 72 0 108 5l9 -9l-30 -30c-24 -2 -71 0 -71 -90z" />
    <glyph glyph-name="V" unicode="V" horiz-adv-x="722" 
d="M395 -17h-41c-11 36 -15 69 -33 107l-217 479c-25 55 -32 74 -89 79l-5 12l27 27c46 -2 91 -5 136 -5c38 0 76 0 113 5l9 -9l-30 -30c-49 -4 -74 -15 -74 -40c0 -9 2 -22 7 -32l192 -423l153 390c8 21 12 44 12 63c0 29 -27 40 -95 42l-5 12l28 27c40 -2 81 -5 122 -5
c34 0 69 0 102 5l10 -9l-30 -30c-34 0 -53 -25 -75 -79c-62 -148 -133 -303 -182 -450c-12 -36 -29 -89 -35 -136z" />
    <glyph glyph-name="W" unicode="W" horiz-adv-x="1019" 
d="M329 -17h-41c-10 36 -18 71 -30 107l-152 479c-17 54 -32 74 -88 79l-5 12l28 27c45 -2 90 -5 135 -5c38 0 76 0 113 5l10 -9l-31 -30c-49 -4 -73 -15 -73 -40c0 -9 3 -22 7 -32l126 -423h2l176 529h45l199 -529h2l93 390c5 21 12 44 12 63c0 29 -26 40 -95 42l-4 12
l27 27c41 -2 81 -5 122 -5c34 0 69 0 103 5l9 -9l-30 -30c-34 0 -61 -25 -75 -79l-123 -450c-10 -36 -24 -87 -32 -136h-41c-17 53 -33 96 -52 144l-158 406h-2l-149 -448c-12 -34 -19 -65 -28 -102z" />
    <glyph glyph-name="X" unicode="X" horiz-adv-x="741" 
d="M164 111l169 228l-170 250c-41 60 -74 59 -116 59l-5 12l27 27c42 -2 82 -5 124 -5c45 0 91 0 137 5l9 -9l-30 -30c-19 0 -52 0 -52 -22c0 -11 24 -53 40 -76l95 -140l103 163c8 12 18 29 18 41c0 34 -18 32 -61 34l-5 12l27 27c41 -2 82 -5 122 -5c35 0 69 0 103 5l9 -9
l-30 -30c-45 0 -76 -22 -100 -54l-162 -218l195 -282c23 -41 74 -60 111 -60l5 -12l-27 -27c-41 2 -82 5 -123 5c-46 0 -92 -1 -137 -5l-10 9l30 30c23 0 64 0 64 22c0 9 -23 41 -36 60l-129 186l-149 -216c-5 -8 -8 -18 -8 -26c0 -18 19 -25 67 -26l5 -12l-27 -27
c-41 2 -81 5 -122 5c-35 0 -69 -1 -103 -5l-9 9l30 30c55 0 82 24 121 77z" />
    <glyph glyph-name="Y" unicode="Y" horiz-adv-x="722" 
d="M317 124v166l-184 273c-58 85 -72 84 -114 85l-5 12l27 27c41 -2 82 -5 123 -5c46 0 92 0 137 5l9 -9l-30 -30c-27 0 -63 0 -63 -26c0 -16 25 -56 43 -83l124 -190l118 204c11 19 23 40 23 58c0 27 -21 35 -73 37l-5 12l27 27c41 -2 82 -5 122 -5c35 0 69 0 103 5l9 -9
l-30 -30c-55 0 -80 -40 -115 -96l-152 -252v-176c0 -81 14 -90 111 -90l5 -12l-28 -27c-46 2 -93 5 -140 5c-49 0 -99 -1 -148 -5l-9 9l30 30c46 6 85 2 85 90z" />
    <glyph glyph-name="Z" unicode="Z" horiz-adv-x="593" 
d="M39 18l391 617h-164c-137 0 -138 -40 -150 -122l-43 -29l-8 7c12 64 18 119 23 194c71 -3 143 -3 215 -3c78 0 156 2 234 3l10 -33l-385 -605h129c202 0 203 43 229 162l42 29l9 -7c-18 -76 -30 -142 -43 -234c-75 2 -150 3 -225 3c-84 0 -168 -2 -253 -3z" />
    <glyph glyph-name="bracketleft" unicode="[" horiz-adv-x="296" 
d="M82 -248v930h183l9 -12l-34 -29h-78v-848h107l5 -12l-34 -29h-158z" />
    <glyph glyph-name="backslash" unicode="\" horiz-adv-x="296" 
d="M215 -3l-200 714l48 8l9 -10l200 -719l-46 -7z" />
    <glyph glyph-name="bracketright" unicode="]" horiz-adv-x="296" 
d="M134 -207v848h-107l-5 11l33 30h159v-930h-184l-8 8l36 33h76z" />
    <glyph glyph-name="asciicircum" unicode="^" 
d="M28 283l213 399h61l207 -399h-64l-175 334l-178 -334h-64z" />
    <glyph glyph-name="underscore" unicode="_" horiz-adv-x="500" 
d="M0 -125v50h500v-50h-500z" />
    <glyph glyph-name="quoteleft" unicode="&#x2018;" horiz-adv-x="296" 
d="M94 434l58 235l40 30l11 -12c-13 -57 -25 -151 -25 -208l-73 -59z" />
    <glyph glyph-name="a" unicode="a" horiz-adv-x="500" 
d="M485 29l-23 -29l-135 -3c0 44 2 49 8 91l-2 2c-26 -33 -99 -107 -173 -107c-76 0 -125 59 -125 129c0 165 234 165 295 165c0 86 -7 150 -82 150c-60 0 -83 -26 -83 -47v-31l-94 -34l-8 6v21c0 104 138 125 225 125c103 0 117 -62 117 -133v-235c0 -61 28 -62 76 -62z
M330 206v39c-65 -6 -215 -27 -215 -120c0 -53 29 -82 70 -82c90 0 145 87 145 163z" />
    <glyph glyph-name="b" unicode="b" horiz-adv-x="574" 
d="M174 719l-9 -361l2 -2c25 40 71 111 170 111c108 0 197 -86 197 -227c0 -170 -120 -257 -229 -257c-96 0 -133 37 -225 45c10 62 10 114 10 171v411c0 37 -41 43 -71 43l-9 11l31 26zM170 199c0 -110 40 -176 134 -176c106 0 150 94 150 194c0 131 -66 190 -145 190
c-119 0 -139 -108 -139 -208z" />
    <glyph glyph-name="c" unicode="c" horiz-adv-x="481" 
d="M444 138l-12 -59c-27 -27 -90 -96 -181 -96c-106 0 -209 87 -209 238c0 170 107 246 223 246c54 0 108 -14 158 -32c0 -39 1 -78 4 -117l-22 -26l-11 3c-18 53 -53 132 -141 132c-68 0 -131 -49 -131 -178c0 -106 37 -206 148 -206c83 0 135 67 165 100z" />
    <glyph glyph-name="d" unicode="d" horiz-adv-x="574" 
d="M556 29l-23 -29l-135 -3c0 45 2 50 8 93l-2 2c-34 -38 -95 -109 -170 -109c-110 0 -199 90 -199 236c0 115 79 248 224 248c49 0 97 -20 142 -39l-5 182c0 37 -45 43 -79 43l-9 11l31 26l137 29v-620c0 -61 28 -62 76 -62zM115 244c0 -88 27 -201 142 -201
c101 0 144 93 144 204c0 90 -27 180 -139 180c-108 0 -147 -101 -147 -183z" />
    <glyph glyph-name="e" unicode="e" horiz-adv-x="500" 
d="M456 114l-12 -57c-31 -23 -95 -74 -182 -74c-114 0 -219 86 -219 233c0 151 96 251 226 251c110 0 182 -78 182 -166c0 -27 -10 -35 -18 -42h-310c0 -71 21 -216 159 -216c76 0 119 39 163 77zM123 294l253 9c-9 42 -30 124 -126 124c-98 0 -122 -88 -127 -133z" />
    <glyph glyph-name="f" unicode="f" horiz-adv-x="352" 
d="M108 104v290h-81l-9 9l34 31h56v36c0 170 88 249 158 249c33 0 66 -6 98 -12l5 -13l-56 -63c-17 7 -58 28 -85 28c-26 0 -40 -27 -40 -64v-161h135l4 -8l-35 -32h-104v-290c0 -57 11 -72 102 -72l7 -10l-31 -27c-39 2 -78 5 -116 5c-42 0 -84 -1 -126 -5l-8 8l30 29
c53 10 62 17 62 72z" />
    <glyph glyph-name="g" unicode="g" horiz-adv-x="500" 
d="M233 70l105 -3c60 -2 125 -33 125 -118c0 -92 -98 -187 -264 -187c-118 0 -170 61 -170 122c0 68 57 113 94 138c-15 10 -38 21 -38 46c0 29 41 63 63 84c-34 17 -91 58 -91 143c0 119 97 172 170 172c53 0 94 -24 104 -29l143 12l10 -16l-41 -43l-77 13
c18 -29 34 -63 34 -97c0 -97 -68 -170 -176 -170c-18 0 -35 2 -53 3c-11 -12 -26 -26 -26 -41c0 -26 37 -27 88 -29zM338 -5l-72 5c-69 4 -99 11 -121 14c-21 -30 -41 -52 -41 -94c0 -77 40 -118 112 -118c86 0 172 48 172 126c0 42 -24 66 -50 67zM132 307
c0 -75 42 -130 100 -130c52 0 93 40 93 115c0 81 -47 135 -100 135c-52 0 -93 -33 -93 -120z" />
    <glyph glyph-name="h" unicode="h" horiz-adv-x="593" 
d="M113 104v506c0 37 -43 43 -75 43l-8 11l30 26l133 29v-347h2c27 37 71 95 145 95c100 0 148 -76 148 -160v-203c0 -72 25 -72 80 -72l6 -10l-31 -27c-31 2 -62 5 -93 5c-42 0 -84 -1 -125 -5l-9 8l30 29c53 10 62 17 62 72v168c0 72 -24 135 -102 135s-113 -73 -113 -145
v-158c0 -57 9 -72 79 -72l7 -10l-31 -27c-31 2 -62 5 -93 5c-42 0 -84 -1 -126 -5l-8 8l30 29c53 10 62 17 62 72z" />
    <glyph glyph-name="i" unicode="i" horiz-adv-x="296" 
d="M111 104v254c0 35 -44 42 -76 42l-9 11l31 26l134 30v-363c0 -57 8 -72 79 -72l6 -10l-31 -27c-31 2 -62 5 -93 5c-42 0 -84 -1 -125 -5l-8 8l30 29c54 10 62 17 62 72zM131 581c-31 0 -59 25 -59 59c0 32 26 59 59 59s59 -27 59 -59s-27 -59 -59 -59z" />
    <glyph glyph-name="j" unicode="j" horiz-adv-x="278" 
d="M112 -56v414c0 35 -44 42 -76 42l-8 11l30 26l134 30v-457c0 -128 -67 -248 -163 -248c-30 0 -61 8 -90 15l-5 13l56 63c16 -8 57 -31 82 -31c40 0 40 51 40 122zM132 581c-31 0 -58 25 -58 59c0 32 26 59 58 59c34 0 59 -27 59 -59s-26 -59 -59 -59z" />
    <glyph glyph-name="k" unicode="k" horiz-adv-x="574" 
d="M115 104v506c0 37 -43 43 -75 43l-8 11l30 26l133 29v-472c37 34 142 132 142 146c0 19 -6 24 -56 24l-7 11l31 27c31 -1 62 -5 93 -5c42 0 84 1 126 5l8 -8l-30 -30c-86 -2 -91 -24 -136 -63l-60 -53l167 -224c24 -32 39 -41 86 -45l7 -10l-31 -27c-26 2 -50 5 -76 5
c-42 0 -84 -1 -125 -5l-9 8l30 29c23 3 32 7 32 17c0 9 -7 24 -14 34l-123 168l-55 -45v-102c0 -57 8 -72 79 -72l6 -10l-31 -27c-31 2 -62 5 -93 5c-41 0 -83 -1 -125 -5l-8 8l30 29c54 10 62 17 62 72z" />
    <glyph glyph-name="l" unicode="l" horiz-adv-x="296" 
d="M111 104v506c0 37 -43 43 -75 43l-9 11l31 26l133 29v-615c0 -57 8 -72 79 -72l6 -10l-31 -27c-31 2 -62 5 -93 5c-42 0 -83 -1 -125 -5l-8 8l30 29c54 10 62 17 62 72z" />
    <glyph glyph-name="m" unicode="m" horiz-adv-x="889" 
d="M108 104v254c0 35 -44 42 -76 42l-9 11l31 26l134 30v-92c33 34 85 92 155 92c88 0 119 -67 133 -102c46 47 91 102 162 102c114 0 150 -99 150 -184v-179c0 -57 8 -72 78 -72l6 -10l-31 -27c-31 2 -61 5 -92 5c-42 0 -84 -1 -125 -5l-9 8l30 29c55 10 63 17 63 72v174
c0 61 -24 129 -102 129c-69 0 -118 -65 -118 -121v-182c0 -57 9 -72 78 -72l7 -10l-31 -27c-31 2 -61 5 -92 5c-42 0 -84 -1 -126 -5l-8 8l30 29c53 10 62 17 62 72v192c0 50 -34 111 -98 111c-99 0 -122 -109 -122 -124v-179c0 -57 8 -72 80 -72l6 -10l-30 -27
c-32 2 -63 5 -94 5c-41 0 -83 -1 -125 -5l-8 8l30 29c53 10 61 17 61 72z" />
    <glyph glyph-name="n" unicode="n" horiz-adv-x="593" 
d="M110 104v254c0 35 -44 42 -76 42l-9 11l31 26l134 30v-92c32 34 84 92 154 92c118 0 146 -113 146 -171v-192c0 -57 8 -72 79 -72l6 -10l-31 -27c-31 2 -62 5 -93 5c-42 0 -83 -1 -125 -5l-8 8l30 29c54 10 62 17 62 72v192c0 50 -33 111 -100 111
c-97 0 -120 -109 -120 -124v-179c0 -57 8 -72 79 -72l6 -10l-31 -27c-31 2 -62 5 -93 5c-42 0 -84 -1 -125 -5l-8 8l30 29c54 10 62 17 62 72z" />
    <glyph glyph-name="o" unicode="o" 
d="M270 -17c-115 0 -232 80 -232 255c0 118 106 229 229 229c125 0 231 -103 231 -249c0 -136 -110 -235 -228 -235zM128 235c0 -122 59 -212 144 -212c72 0 136 54 136 185c0 143 -68 219 -142 219c-77 0 -138 -59 -138 -192z" />
    <glyph glyph-name="p" unicode="p" horiz-adv-x="574" 
d="M166 191c0 -107 53 -168 138 -168c120 0 148 125 148 189c0 137 -69 195 -141 195c-145 0 -145 -135 -145 -216zM86 -134v492c0 35 -44 42 -76 42l-9 11l30 26l135 30l-5 -109l2 -2c40 48 90 111 172 111c94 0 197 -79 197 -228c0 -101 -70 -256 -228 -256
c-61 0 -112 29 -138 41v-158c1 -57 12 -72 124 -72l7 -10l-31 -27c-47 2 -93 5 -139 5c-42 0 -84 -1 -125 -5l-9 8l30 29c55 10 63 17 63 72z" />
    <glyph glyph-name="q" unicode="q" horiz-adv-x="574" 
d="M119 224c0 -63 27 -181 148 -181c85 0 138 69 138 188c0 72 -1 196 -145 196c-69 0 -141 -60 -141 -203zM405 -134v226h-2c-21 -48 -88 -109 -159 -109c-142 0 -205 141 -205 234c0 163 120 250 231 250c75 0 112 -25 147 -44c8 0 14 1 22 2c18 8 36 16 55 25l3 -4
c-6 -37 -12 -55 -12 -88v-492c0 -57 6 -72 63 -72l7 -10l-31 -27c-39 2 -78 5 -116 5c-42 0 -84 -1 -125 -5l-9 8l30 29c88 10 101 17 101 72z" />
    <glyph glyph-name="r" unicode="r" horiz-adv-x="407" 
d="M107 104v254c0 35 -44 42 -76 42l-9 11l30 26l135 30l-12 -126l2 -2c17 26 69 128 125 128c32 0 74 -28 87 -42v-10l-53 -56c-20 12 -41 28 -64 28c-48 0 -85 -66 -85 -166v-117c0 -57 8 -72 79 -72l6 -10l-31 -27c-31 2 -62 5 -93 5c-42 0 -84 -1 -125 -5l-9 8l30 29
c54 10 63 17 63 72z" />
    <glyph glyph-name="s" unicode="s" horiz-adv-x="426" 
d="M338 326l-11 6c-19 47 -34 95 -110 95c-52 0 -82 -34 -82 -69c0 -109 255 -53 255 -224c0 -86 -55 -151 -170 -151c-58 0 -115 15 -169 35c0 43 -2 83 -5 113l25 31l10 -7c10 -45 30 -132 129 -132c67 0 105 39 105 95c0 119 -255 51 -255 218c0 69 49 131 158 131
c61 0 121 -20 134 -25l10 -85z" />
    <glyph glyph-name="t" unicode="t" horiz-adv-x="333" 
d="M312 40l-55 -57c-114 5 -160 6 -160 120v291h-80l-8 8l32 32h56v126l77 73l3 -4v-195h130l5 -7l-37 -33h-98v-228c-2 -105 0 -123 66 -123c21 0 42 1 64 4z" />
    <glyph glyph-name="u" unicode="u" horiz-adv-x="593" 
d="M411 -3l-3 91h-2c-30 -43 -83 -105 -153 -105c-119 0 -146 118 -146 179v196c0 35 -45 42 -77 42l-8 11l30 26l135 30v-278c0 -66 34 -146 99 -146c97 0 120 119 120 136v179c0 35 -44 42 -76 42l-8 11l30 26l134 30v-368c0 -62 29 -62 79 -62l4 -8l-23 -29z" />
    <glyph glyph-name="v" unicode="v" horiz-adv-x="556" 
d="M303 -17h-46c-12 33 -24 66 -40 100l-132 270c-23 47 -29 62 -79 65l-6 10l31 27c31 -1 62 -5 93 -5c38 0 76 1 114 5l8 -8l-30 -29c-32 0 -52 -4 -52 -21c0 -14 5 -29 13 -50l118 -263l81 215c14 39 27 76 27 93c0 15 -28 26 -62 26l-6 10l31 27c31 -1 62 -5 93 -5
c27 0 53 1 79 5l9 -8l-30 -29c-35 0 -47 -22 -63 -60l-101 -238c-20 -46 -33 -91 -50 -137z" />
    <glyph glyph-name="w" unicode="w" horiz-adv-x="833" 
d="M251 -17l-172 370c-22 47 -30 62 -79 65l-6 10l31 27c31 -1 62 -5 93 -5c38 0 76 1 113 5l9 -8l-30 -29c-32 0 -53 -4 -53 -21c0 -14 5 -29 14 -50l111 -263l117 366h41l160 -366h2l46 215c8 39 19 76 19 93c0 15 -28 26 -62 26l-6 10l31 27c31 -1 62 -5 93 -5
c26 0 53 1 79 5l9 -8l-30 -29c-35 0 -52 -22 -63 -60l-107 -375h-46l-158 362l-110 -362h-46z" />
    <glyph glyph-name="x" unicode="x" horiz-adv-x="519" 
d="M131 115l91 104l-93 126c-47 63 -47 73 -124 73l-6 10l31 27c31 -1 62 -5 93 -5c42 0 84 1 125 5l9 -8l-30 -29c-28 0 -40 -1 -40 -13c0 -16 11 -28 21 -41l64 -85l74 101c5 6 9 15 9 19c0 19 -24 19 -55 19l-6 10l31 27c31 -1 62 -5 93 -5c27 0 53 1 80 5l8 -8l-30 -29
c-27 -2 -46 -7 -63 -27l-119 -144l116 -156c31 -40 55 -55 99 -59l6 -10l-31 -27c-31 2 -62 5 -93 5c-35 0 -71 -1 -106 -5l-8 8l30 28c18 6 33 9 33 21c0 14 -28 48 -45 70l-49 66l-82 -111c-4 -7 -7 -17 -7 -21c0 -24 26 -24 59 -24l6 -10l-30 -27c-35 2 -70 5 -105 5
c-27 0 -53 -1 -80 -5l-8 8l30 28c44 10 53 28 102 84z" />
    <glyph glyph-name="y" unicode="y" horiz-adv-x="556" 
d="M49 -235l30 29c63 5 106 68 173 214l-171 379c-8 17 -15 31 -77 31l-6 10l31 27c39 -1 77 -5 116 -5l149 -351l53 124c21 49 44 107 44 154c0 33 -9 41 -79 41l-6 10l31 27c27 -1 54 -5 81 -5c42 0 84 1 125 5l9 -8l-30 -29c-38 -8 -53 -15 -74 -64l-213 -499
c-4 -10 -7 -18 -7 -24c0 -29 27 -37 83 -37l6 -10l-31 -27c-34 2 -69 5 -104 5c-42 0 -84 -1 -125 -5z" />
    <glyph glyph-name="z" unicode="z" horiz-adv-x="444" 
d="M28 23l279 387h-81c-105 0 -112 -7 -139 -90l-36 -24l-9 6l25 148h339l7 -24l-286 -386h114c114 0 116 11 135 102l44 32l7 -5c-11 -41 -19 -87 -31 -169h-359z" />
    <glyph glyph-name="braceleft" unicode="{" 
d="M422 -210v-25c-100 4 -211 74 -211 170c0 36 6 66 12 96c7 35 16 68 16 94c0 62 -53 109 -110 127v24c57 18 110 60 110 127c0 26 -9 59 -16 94c-6 30 -12 60 -12 96c0 96 111 166 211 170v-25c-74 -17 -107 -79 -107 -136c0 -26 3 -53 7 -85c3 -24 7 -60 7 -79
c0 -111 -105 -153 -155 -174c50 -22 155 -67 155 -174c0 -19 -4 -55 -7 -79c-4 -32 -7 -59 -7 -85c0 -57 33 -119 107 -136z" />
    <glyph glyph-name="bar" unicode="|" horiz-adv-x="259" 
d="M100 -248v930h60v-930h-60z" />
    <glyph glyph-name="braceright" unicode="}" 
d="M115 -235v25c74 17 107 79 107 136c0 26 -3 53 -7 85c-3 24 -7 60 -7 79c0 107 105 152 155 174c-50 21 -155 63 -155 174c0 19 4 55 7 79c4 32 7 59 7 85c0 57 -33 119 -107 136v25c100 -4 211 -74 211 -170c0 -36 -6 -66 -12 -96c-7 -35 -16 -68 -16 -94
c0 -67 53 -109 110 -127v-24c-57 -18 -110 -65 -110 -127c0 -26 9 -59 16 -94c6 -30 12 -60 12 -96c0 -96 -111 -166 -211 -170z" />
    <glyph glyph-name="asciitilde" unicode="~" horiz-adv-x="889" 
d="M256 127h-61c0 93 13 241 141 241c146 0 131 -202 224 -202c71 0 71 115 71 180h62c0 -76 0 -243 -140 -243c-143 0 -125 204 -218 204c-79 0 -79 -114 -79 -180z" />
    <glyph glyph-name="exclamdown" unicode="&#xa1;" horiz-adv-x="296" 
d="M150 353c-32 0 -57 26 -57 57s25 57 57 57c31 0 57 -26 57 -57s-26 -57 -57 -57zM111 -249l-11 6c19 223 31 387 31 503l33 12l8 -6c0 -160 18 -368 26 -477z" />
    <glyph glyph-name="cent" unicode="&#xa2;" 
d="M251 0v91c-66 9 -172 52 -172 214c0 154 104 203 172 215v65h41v-65c43 0 91 -12 139 -31c-3 -16 -5 -33 -5 -49c0 -17 2 -35 5 -52l-24 -30l-17 10c-11 51 -32 100 -98 106v-333c67 0 102 47 135 92l18 -5l-11 -52c-47 -48 -71 -67 -142 -85v-91h-41zM251 146v328
c-33 -6 -97 -41 -97 -151c0 -118 64 -166 97 -177z" />
    <glyph glyph-name="sterling" unicode="&#xa3;" 
d="M82 -6l-25 41l8 16c23 8 47 16 74 20c31 42 53 66 53 128c0 30 -7 61 -16 88h-118l-6 11l17 29h91c-20 53 -42 106 -42 163c0 106 74 173 168 173c95 0 164 -70 164 -153c0 -10 -6 -20 -7 -30l-12 -7l-62 23c4 11 6 25 6 37c0 55 -34 90 -90 90c-49 0 -87 -33 -87 -102
c0 -58 36 -137 46 -194h124l6 -10l-16 -30h-107v-33c0 -114 -44 -147 -69 -178h47c33 0 60 -3 85 -6c26 -4 50 -7 77 -7c46 0 56 11 76 58l34 16l10 -8l-59 -136c-17 -7 -35 -10 -53 -10c-48 0 -87 8 -124 17c-37 8 -73 16 -114 16c-29 0 -51 -3 -79 -22z" />
    <glyph glyph-name="fraction" unicode="&#x2044;" horiz-adv-x="366" 
d="M-38 -5l413 668h47l6 -13l-414 -667h-45z" />
    <glyph glyph-name="yen" unicode="&#xa5;" 
d="M185 565l102 -217l81 197c8 22 20 45 20 67c-1 31 -25 29 -58 36l-5 12l28 27c25 -2 51 -5 76 -5c27 0 54 0 81 5l9 -9l-30 -30c-18 -3 -40 -20 -68 -83l-84 -198h153v-40h-170l-10 -24v-83h180v-40h-180v-66v-25c0 -39 20 -55 80 -55l5 -12l-27 -27c-31 2 -62 5 -93 5
c-36 0 -72 -1 -107 -5l-10 9l30 30c17 1 52 1 52 55v25v66h-185v40h185v65l-20 42h-165v40h146l-104 214c-22 45 -33 67 -74 67l-5 12l27 27c32 -2 63 -5 95 -5c31 0 62 0 92 5l9 -9l-30 -30c-11 -1 -42 -3 -42 -31c0 -13 5 -30 16 -52z" />
    <glyph glyph-name="florin" unicode="&#x192;" 
d="M71 -137l139 565l-83 -3l-8 12l30 30h66c23 110 93 252 221 252c23 0 48 -6 71 -12v-16l-59 -57c-20 12 -39 25 -63 25c-62 0 -87 -134 -100 -192h108l3 -14l-34 -28l-86 4l-121 -540l-68 -39z" />
    <glyph glyph-name="section" unicode="&#xa7;" 
d="M406 524l-11 2c-23 56 -43 123 -113 123c-35 0 -66 -28 -66 -68c0 -120 241 -329 241 -525c0 -114 -79 -205 -199 -205c-59 0 -118 18 -170 43c0 15 1 30 1 45c0 37 -4 74 -9 109l27 31l9 -3c15 -73 41 -175 129 -175c43 0 78 31 78 82c0 148 -244 337 -244 519
c0 82 43 197 200 197c44 0 90 -12 131 -28c1 -18 3 -37 5 -55c3 -22 9 -43 14 -65zM371 -1c0 -79 -63 -117 -99 -121v-2c46 0 137 37 137 165c0 197 -241 377 -241 528c0 75 58 96 84 103l-2 2c-60 -8 -123 -52 -123 -150c0 -159 244 -387 244 -525z" />
    <glyph glyph-name="currency" unicode="&#xa4;" 
d="M63 118l-30 30l67 67c-33 36 -47 88 -47 136c0 49 17 100 48 138l-70 70l32 31l69 -68c39 28 88 46 137 46c48 0 97 -18 136 -46l69 68l32 -31l-70 -70c35 -36 48 -89 48 -138c0 -48 -15 -100 -47 -136l67 -67l-30 -30l-66 66c-44 -33 -90 -47 -139 -47
c-50 0 -103 18 -140 47zM269 527c-97 0 -175 -80 -175 -176s79 -173 175 -173c95 0 174 78 174 173c0 96 -78 176 -174 176z" />
    <glyph glyph-name="quotesingle" unicode="'" horiz-adv-x="296" 
d="M173 428h-51c0 74 -12 195 -20 246l14 11c10 -1 21 -3 32 -3s22 2 34 3l11 -13c-6 -49 -20 -170 -20 -244z" />
    <glyph glyph-name="quotedblleft" unicode="&#x201c;" horiz-adv-x="407" 
d="M214 434l58 235l41 30l10 -12c-14 -57 -25 -151 -25 -208l-72 -59zM85 434l58 235l40 30l11 -12c-14 -57 -25 -151 -25 -208l-73 -59z" />
    <glyph glyph-name="guillemotleft" unicode="&#xab;" horiz-adv-x="407" 
d="M199 37l-44 11c-48 71 -53 91 -130 167c75 72 80 91 123 169l45 12l12 -8c-23 -74 -40 -104 -97 -173c57 -65 70 -94 97 -170zM349 37l-45 11c-48 71 -52 91 -129 167c74 72 79 91 122 169l45 12l12 -8c-23 -74 -40 -104 -96 -173c56 -65 69 -94 96 -170z" />
    <glyph glyph-name="guilsinglleft" unicode="&#x2039;" horiz-adv-x="259" 
d="M199 37l-43 11c-48 71 -53 91 -130 167c75 72 80 91 123 169l44 12l12 -8c-23 -74 -40 -104 -96 -173c56 -65 69 -94 96 -170z" />
    <glyph glyph-name="guilsinglright" unicode="&#x203a;" horiz-adv-x="259" 
d="M66 37l-12 8c23 74 39 104 96 172c-56 66 -70 95 -96 171l5 8l45 -11c47 -72 52 -91 129 -167c-74 -72 -79 -91 -122 -169z" />
    <glyph glyph-name="fi" unicode="&#xfb01;" horiz-adv-x="593" 
d="M109 104v290h-82l-9 8l34 32h57v36c0 170 100 249 179 249c37 0 74 -6 111 -12l4 -13l-56 -63c-21 7 -74 28 -108 28c-32 0 -50 -32 -50 -74v-151h134c53 0 104 15 158 33v-363c0 -57 9 -72 80 -72l6 -10l-31 -27c-31 2 -62 5 -93 5c-42 0 -84 -1 -125 -5l-9 8l30 29
c53 10 62 17 62 72v242c0 48 -43 48 -109 48h-103v-290c0 -57 11 -72 101 -72l7 -10l-31 -27c-39 2 -78 5 -116 5c-42 0 -84 -1 -126 -5l-8 8l30 29c54 10 63 17 63 72z" />
    <glyph glyph-name="fl" unicode="&#xfb02;" horiz-adv-x="611" 
d="M110 104v290h-82l-8 8l33 32h57v36c0 170 87 249 157 249c45 0 88 -10 133 -22l100 22v-615c0 -57 8 -72 79 -72l6 -10l-31 -27c-31 2 -62 5 -93 5c-42 0 -84 -1 -125 -5l-9 8l31 29c54 10 62 17 62 72v506c0 28 -24 39 -48 43l-23 -26c-24 8 -82 32 -120 32
c-25 0 -39 -27 -39 -62v-163h134l4 -8l-35 -32h-103v-290c0 -57 11 -72 101 -72l7 -10l-31 -27c-39 2 -78 5 -116 5c-42 0 -84 -1 -125 -5l-9 8l30 29c54 10 63 17 63 72z" />
    <glyph glyph-name="endash" unicode="&#x2013;" 
d="M51 226l42 48h390l3 -12l-42 -48h-385z" />
    <glyph glyph-name="dagger" unicode="&#x2020;" 
d="M294 -166h-51c0 183 0 381 -21 529c9 27 21 51 25 81c-64 -4 -73 -8 -153 -30l-18 8v93l18 8c73 -21 108 -28 153 -33c0 57 -15 98 -37 177l11 15h97l9 -15c-23 -80 -32 -121 -37 -177c45 5 80 11 153 33l18 -8v-93l-18 -8c-79 23 -88 26 -153 30c4 -30 16 -54 25 -81
c-21 -147 -21 -345 -21 -529z" />
    <glyph glyph-name="daggerdbl" unicode="&#x2021;" 
d="M294 -159h-51c0 115 0 227 -4 345c6 25 8 43 8 52c-46 -4 -81 -11 -155 -33l-16 8v93l17 8c81 -23 90 -26 154 -30c-4 33 -15 54 -24 81c9 26 17 50 24 79c-64 -4 -73 -8 -154 -31l-17 7v93l16 8c74 -20 109 -26 155 -31c0 57 -15 98 -37 177l10 15h98l10 -15
c-25 -80 -33 -121 -38 -177c46 5 82 11 156 33l15 -8v-93l-17 -8c-80 23 -90 26 -154 30c7 -29 17 -53 26 -79c-9 -27 -19 -53 -26 -82c64 4 74 7 154 30l17 -8v-93l-15 -8c-74 22 -110 28 -156 33c0 -8 1 -26 8 -51c-4 -110 -4 -230 -4 -345z" />
    <glyph glyph-name="periodcentered" unicode="&#xb7;" 
d="M269 286c-30 0 -54 24 -54 54c0 28 23 53 54 53c28 0 53 -23 53 -53s-24 -54 -53 -54z" />
    <glyph glyph-name="paragraph" unicode="&#xb6;" 
d="M282 -222v437c-84 10 -221 65 -221 227c0 174 159 240 299 240h115v-37h-58v-867h-37v867h-61v-867h-37z" />
    <glyph glyph-name="bullet" unicode="&#x2022;" horiz-adv-x="500" 
d="M250 180c-100 0 -181 81 -181 180c0 100 81 182 181 182c99 0 181 -82 181 -182c0 -99 -82 -180 -181 -180z" />
    <glyph glyph-name="quotesinglbase" unicode="&#x201a;" horiz-adv-x="259" 
d="M75 -182l-11 12c13 56 25 151 25 208l73 59l11 -15l-58 -235z" />
    <glyph glyph-name="quotedblbase" unicode="&#x201e;" horiz-adv-x="407" 
d="M90 -182l-11 12c14 56 25 151 25 208l73 59l11 -15l-58 -235zM220 -182l-11 12c14 56 25 151 25 208l73 59l11 -15l-58 -235z" />
    <glyph glyph-name="quotedblright" unicode="&#x201d;" horiz-adv-x="407" 
d="M94 420l-10 12c14 56 25 150 25 208l72 59l12 -15l-58 -235zM224 420l-11 12c14 56 25 150 25 208l73 59l11 -15l-58 -235z" />
    <glyph glyph-name="guillemotright" unicode="&#xbb;" horiz-adv-x="407" 
d="M214 37l-12 8c22 74 39 104 97 172c-56 66 -70 95 -97 171l6 8l44 -11c48 -72 53 -91 130 -167c-74 -72 -80 -91 -122 -169zM64 37l-12 8c23 74 40 104 97 172c-56 66 -69 95 -96 171l6 8l44 -11c48 -72 53 -91 129 -167c-73 -72 -79 -91 -122 -169z" />
    <glyph glyph-name="ellipsis" unicode="&#x2026;" horiz-adv-x="889" 
d="M149 0c-30 0 -52 25 -52 54c0 30 24 53 52 53c29 0 53 -24 53 -53c0 -30 -24 -54 -53 -54zM444 0c-30 0 -52 25 -52 54c0 30 24 53 52 53c29 0 53 -24 53 -53c0 -30 -24 -54 -53 -54zM739 0c-30 0 -52 25 -52 54c0 30 24 53 52 53c29 0 53 -24 53 -53
c0 -30 -24 -54 -53 -54z" />
    <glyph glyph-name="perthousand" unicode="&#x2030;" horiz-adv-x="1037" 
d="M542 0c-77 0 -144 56 -144 200c0 139 68 203 144 203c84 0 145 -66 145 -203c0 -139 -74 -200 -145 -200zM468 200c0 -131 29 -160 74 -160c55 0 75 53 75 160c0 135 -41 163 -75 163c-73 0 -74 -110 -74 -163zM115 -5l373 600l-2 2c-32 -18 -67 -29 -104 -29
c-29 0 -58 8 -87 16c12 -34 21 -73 21 -125c0 -139 -74 -199 -144 -199c-78 0 -145 55 -145 199c0 139 68 204 145 204c31 0 52 -14 80 -27c28 -14 63 -28 122 -28c83 0 125 26 160 55h42l5 -13l-413 -667h-45zM97 459c0 -131 29 -159 75 -159c54 0 74 53 74 159
c0 136 -40 164 -74 164c-75 0 -75 -110 -75 -164zM866 0c-78 0 -145 56 -145 200c0 139 68 203 145 203c83 0 144 -66 144 -203c0 -139 -74 -200 -144 -200zM791 200c0 -132 29 -160 75 -160c54 0 74 52 74 160c0 136 -40 163 -74 163c-75 0 -75 -111 -75 -163z" />
    <glyph glyph-name="questiondown" unicode="&#xbf;" horiz-adv-x="407" 
d="M374 -65l13 -9c1 -8 2 -16 2 -25c0 -92 -55 -150 -174 -150s-178 69 -178 151c0 138 201 221 201 335v32l38 14l8 -7c0 -186 -160 -221 -160 -363c0 -75 41 -116 100 -116c60 0 95 31 95 83c0 11 -2 21 -5 31zM254 353c-31 0 -57 26 -57 57s26 57 57 57
c32 0 57 -26 57 -57s-25 -57 -57 -57z" />
    <glyph glyph-name="grave" unicode="`" horiz-adv-x="380" 
d="M297 524l-223 88l-4 9l69 70c74 -69 84 -80 169 -129l9 -19z" />
    <glyph glyph-name="acute" unicode="&#xb4;" horiz-adv-x="380" 
d="M82 543l8 19c86 49 95 60 169 129l70 -70l-4 -9l-223 -88z" />
    <glyph glyph-name="circumflex" unicode="&#x2c6;" horiz-adv-x="380" 
d="M33 536v20c66 59 76 69 128 135h57c34 -44 67 -80 127 -133l1 -16l-25 -18l-129 96l-136 -96z" />
    <glyph glyph-name="tilde" unicode="&#x2dc;" horiz-adv-x="380" 
d="M19 562l34 66c13 25 20 32 45 32c30 0 73 -12 110 -22c30 -9 54 -15 64 -15c25 0 37 9 59 37l29 -7l-32 -60c-14 -27 -19 -37 -52 -37c-23 0 -57 9 -82 16c-37 11 -70 21 -89 21c-24 0 -28 -10 -54 -37z" />
    <glyph glyph-name="macron" unicode="&#xaf;" horiz-adv-x="380" 
d="M57 556v59h265v-59h-265z" />
    <glyph glyph-name="breve" unicode="&#x2d8;" horiz-adv-x="380" 
d="M338 659l5 -12c-17 -39 -62 -123 -157 -123c-92 0 -135 88 -150 119l3 14l26 10c19 -31 46 -72 122 -72c83 0 106 42 128 72z" />
    <glyph glyph-name="dotaccent" unicode="&#x2d9;" horiz-adv-x="380" 
d="M190 556c-31 0 -55 25 -55 55s24 56 55 56s55 -26 55 -56c0 -32 -26 -55 -55 -55z" />
    <glyph glyph-name="dieresis" unicode="&#xa8;" horiz-adv-x="380" 
d="M102 556c-31 0 -55 25 -55 55s24 56 55 56s55 -26 55 -56c0 -32 -26 -55 -55 -55zM277 556c-31 0 -55 25 -55 55s24 56 55 56s55 -26 55 -56c0 -32 -26 -55 -55 -55z" />
    <glyph glyph-name="ring" unicode="&#x2da;" horiz-adv-x="380" 
d="M190 524c-54 0 -98 43 -98 98c0 53 42 98 98 98c53 0 98 -44 98 -98s-44 -98 -98 -98zM130 622c0 -34 27 -60 60 -60s60 27 60 60c0 34 -28 60 -60 60c-35 0 -60 -28 -60 -60z" />
    <glyph glyph-name="cedilla" unicode="&#xb8;" horiz-adv-x="380" 
d="M225 0l-45 -56c9 1 20 3 30 3c37 0 66 -26 66 -60c0 -38 -32 -72 -80 -72c-35 0 -52 16 -72 35l10 16h13c12 -10 26 -19 41 -19c21 0 38 16 38 36c0 18 -14 34 -36 34c-12 0 -27 -7 -39 -13l-19 20l54 76h39z" />
    <glyph glyph-name="hungarumlaut" unicode="&#x2dd;" horiz-adv-x="380" 
d="M16 539l6 22c53 55 69 67 118 141l80 -54v-10l-180 -114zM171 542l8 18c70 47 85 62 142 124l72 -64l-3 -10l-198 -86z" />
    <glyph glyph-name="ogonek" unicode="&#x2db;" horiz-adv-x="380" 
d="M345 -82l8 -14c-12 -12 -31 -35 -74 -35c-39 0 -79 27 -79 75c0 54 41 67 72 80h57c-23 -12 -78 -33 -78 -82c0 -25 16 -39 36 -39c17 0 33 8 46 20z" />
    <glyph glyph-name="caron" unicode="&#x2c7;" horiz-adv-x="380" 
d="M218 524h-56c-35 44 -67 80 -128 133l-1 17l25 17l130 -96l135 96l23 -12v-20c-65 -59 -76 -69 -128 -135z" />
    <glyph glyph-name="emdash" unicode="&#x2014;" horiz-adv-x="889" 
d="M47 226l42 48h749l4 -12l-42 -48h-745z" />
    <glyph glyph-name="AE" unicode="&#xc6;" horiz-adv-x="963" 
d="M437 636l-146 -308h188v230c0 46 -8 76 -42 78zM122 110l265 539c-15 0 -33 0 -52 -1l-5 12l27 27c57 -2 116 -5 173 -5c120 0 240 3 360 5c4 -70 8 -106 18 -177l-37 -23l-9 7c-15 111 -20 142 -212 142c-26 0 -52 -2 -77 -4v-255h102c70 0 78 8 78 97l37 23l9 -5
c-2 -47 -5 -105 -5 -157c0 -35 3 -69 5 -105l-37 -23l-9 10c0 97 -24 114 -78 114h-102v-201c0 -84 27 -84 153 -84c129 0 133 92 146 166l41 29l11 -10c-13 -77 -17 -111 -30 -236c-124 5 -248 5 -372 5c-46 0 -92 -3 -138 -5l-9 9l30 30c43 6 74 17 74 96v152h-210
l-68 -144c-10 -19 -21 -42 -21 -60c0 -31 23 -42 81 -44l5 -12l-28 -27c-40 2 -81 5 -122 5c-34 0 -69 -1 -102 -5l-10 9l30 30c36 0 67 34 88 76z" />
    <glyph glyph-name="ordfeminine" unicode="&#xaa;" 
d="M324 338l6 57c-31 -27 -69 -64 -115 -64c-56 0 -94 42 -94 89c0 99 132 114 207 114c0 40 0 93 -51 93c-46 0 -51 -24 -51 -44l-69 -23l-9 1v21c0 33 35 81 147 81c83 0 89 -42 89 -96v-147c0 -49 23 -47 46 -49l7 -10l-16 -19zM187 428c0 -29 20 -50 46 -50
c54 0 95 61 95 123c-58 -2 -141 -13 -141 -73z" />
    <glyph glyph-name="Lslash" unicode="&#x141;" horiz-adv-x="611" 
d="M138 130v161l-126 -72v50l126 73v216c0 80 -12 90 -99 90l-5 12l27 27c43 -2 86 -5 129 -5c53 0 106 0 158 5l9 -9l-30 -30c-49 0 -95 -2 -95 -90v-161l148 85v-50l-148 -86v-216c0 -84 27 -84 153 -84c129 0 132 92 145 166l42 29l10 -10c-12 -78 -17 -113 -29 -236
c-124 2 -249 5 -373 5c-46 0 -91 -3 -137 -5l-9 9l30 30c50 4 74 17 74 96z" />
    <glyph glyph-name="Oslash" unicode="&#xd8;" horiz-adv-x="796" 
d="M55 -6l88 98c-61 68 -96 159 -96 265c0 162 136 342 350 342c85 0 162 -29 222 -80l68 80h49l8 -7l-94 -108c62 -67 98 -157 98 -254c0 -198 -147 -347 -345 -347c-87 0 -165 27 -226 76l-68 -76h-44zM198 152l370 410c-44 56 -104 87 -179 87c-126 0 -237 -87 -237 -306
c0 -71 17 -136 46 -191zM593 520l-366 -406c46 -51 107 -81 179 -81c150 0 237 118 237 280c0 73 -17 147 -50 207z" />
    <glyph glyph-name="OE" unicode="&#x152;" horiz-adv-x="1093" 
d="M599 102v456c0 70 -74 91 -200 91c-131 0 -248 -87 -248 -306c0 -175 135 -310 288 -310c67 0 160 17 160 69zM1033 241l10 -10c-12 -77 -16 -111 -29 -234c-124 3 -248 3 -373 3c-37 0 -73 -4 -111 -8c-38 -5 -78 -9 -123 -9c-210 0 -361 153 -361 374
c0 162 140 342 361 342c52 0 97 -4 137 -8c40 -5 75 -9 106 -9c120 0 240 0 359 3c5 -68 9 -106 19 -175l-37 -23l-10 7c-14 111 -20 142 -212 142c-25 0 -50 -2 -76 -4v-255h101c71 0 78 8 78 97l38 23l8 -5c-2 -47 -5 -105 -5 -157c0 -35 3 -69 5 -105l-37 -23l-9 10
c0 97 -20 114 -78 114h-101v-201c0 -84 28 -84 153 -84c129 0 132 92 145 166z" />
    <glyph glyph-name="ordmasculine" unicode="&#xba;" 
d="M267 325c-94 0 -162 61 -162 169c0 94 70 169 162 169c93 0 164 -65 164 -171c-1 -102 -70 -167 -164 -167zM175 499c0 -78 35 -140 92 -140c51 0 94 27 94 117c0 64 -18 153 -94 153c-54 0 -92 -32 -92 -130z" />
    <glyph glyph-name="ae" unicode="&#xe6;" horiz-adv-x="778" 
d="M746 114l-12 -57c-30 -23 -95 -74 -182 -74c-82 0 -153 47 -199 116c-29 -35 -105 -116 -181 -116c-77 0 -126 59 -126 129c0 169 234 169 295 169c0 84 -6 146 -81 146c-61 0 -83 -26 -83 -47v-31l-94 -34l-8 6v21c0 104 138 125 224 125c50 0 81 -24 102 -59
c51 48 95 59 158 59c110 0 183 -78 183 -166c0 -27 -11 -35 -19 -42h-312c0 -71 22 -216 161 -216c77 0 119 39 163 77zM341 206v44c-64 -7 -215 -28 -215 -125c0 -53 29 -82 70 -82c90 0 145 87 145 163zM416 292l251 11c-9 42 -30 124 -127 124c-95 0 -119 -90 -124 -135z
" />
    <glyph glyph-name="dotlessi" unicode="&#x131;" horiz-adv-x="296" 
d="M111 104v254c0 35 -44 42 -76 42l-9 11l31 26l134 30v-363c0 -57 8 -72 79 -72l6 -10l-31 -27c-31 2 -62 5 -93 5c-42 0 -84 -1 -125 -5l-8 8l30 28c54 10 62 17 62 73z" />
    <glyph glyph-name="lslash" unicode="&#x142;" horiz-adv-x="296" 
d="M109 104v218l-99 -64v60l99 64v228c0 37 -43 43 -75 43l-9 11l31 26l133 29v-285l96 62v-60l-96 -62v-270c0 -57 8 -72 79 -72l6 -10l-31 -27c-31 2 -62 5 -93 5c-42 0 -83 -1 -125 -5l-8 8l30 29c54 10 62 17 62 72z" />
    <glyph glyph-name="oslash" unicode="&#xf8;" 
d="M492 457l-55 -64c37 -46 61 -106 61 -175c0 -136 -110 -235 -228 -235c-50 0 -100 17 -142 51l-44 -51h-29l-11 9l57 67c-38 44 -63 103 -63 179c0 118 106 229 229 229c53 0 103 -17 145 -46l39 46h37zM148 114l223 259c-30 36 -67 54 -105 54c-83 0 -148 -59 -148 -192
c0 -45 9 -87 30 -121zM391 340l-225 -262c28 -36 64 -55 106 -55c77 0 146 54 146 185c0 51 -9 95 -27 132z" />
    <glyph glyph-name="oe" unicode="&#x153;" horiz-adv-x="870" 
d="M833 114l-12 -57c-31 -23 -96 -74 -182 -74c-71 0 -138 33 -177 92c-43 -57 -114 -92 -187 -92c-115 0 -232 80 -232 255c0 118 106 229 229 229c77 0 147 -39 190 -102c40 64 105 102 184 102c110 0 182 -78 182 -166c0 -27 -11 -35 -18 -42h-315
c0 -71 22 -216 164 -216c76 0 118 39 163 77zM123 235c0 -122 62 -212 154 -212c75 0 143 54 143 185c0 143 -72 219 -149 219c-83 0 -148 -59 -148 -192zM500 294l253 9c-9 42 -31 124 -127 124c-97 0 -121 -88 -126 -133z" />
    <glyph glyph-name="germandbls" unicode="&#xdf;" horiz-adv-x="519" 
d="M114 104v289h-76l-10 10l30 30l56 -3l5 79c5 93 72 210 163 210c52 0 120 -35 120 -130c0 -97 -89 -177 -111 -194c70 -74 203 -153 203 -263c0 -87 -62 -149 -147 -149c-40 0 -80 13 -114 35c5 28 5 65 5 98c8 12 16 23 25 34h9c8 -50 19 -127 90 -127c42 0 72 36 72 88
c0 92 -122 140 -196 239v28c30 38 94 87 94 195c0 67 -34 96 -71 96c-64 0 -67 -80 -67 -136v-538c-25 3 -56 5 -84 5c-27 0 -63 -2 -80 -5l-8 8l30 29c53 10 62 17 62 72z" />
    <glyph glyph-name="divide" unicode="&#xf7;" horiz-adv-x="889" 
d="M444 22c-27 0 -50 22 -50 50s23 50 50 50c28 0 50 -23 50 -50c0 -28 -23 -50 -50 -50zM194 202v60h501v-60h-501zM444 342c-27 0 -50 22 -50 50s23 50 50 50c28 0 50 -23 50 -50c0 -28 -23 -50 -50 -50z" />
    <glyph glyph-name="threequarters" unicode="&#xbe;" horiz-adv-x="889" 
d="M683 -12v90h-175l-6 40l197 273h39v-267h26c14 0 24 14 34 24l18 3l9 -9l-26 -64h-61v-82l-48 -13zM681 307l-129 -183h131v183h-2zM234 -5l414 668h47l5 -13l-413 -667h-45zM121 545l-14 8c0 43 8 110 124 110c81 0 117 -41 117 -89c0 -55 -39 -80 -74 -99
c40 -18 85 -36 85 -104c0 -61 -48 -118 -135 -118c-104 0 -135 60 -146 96l59 31l14 -17c3 -32 18 -70 72 -70c37 0 66 28 66 70c0 75 -69 85 -120 85l-10 15l17 22c44 0 102 20 102 80c0 32 -27 58 -58 58c-55 0 -58 -36 -58 -64z" />
    <glyph glyph-name="onequarter" unicode="&#xbc;" horiz-adv-x="889" 
d="M673 -12v90h-174l-6 40l196 273h39v-267h26c15 0 25 14 35 24l18 3l9 -9l-26 -64h-62v-82l-48 -13zM671 307l-128 -183h130v183h-2zM224 -5l414 668h47l6 -13l-414 -667h-45zM188 360v174c0 32 -5 50 -38 50c-9 0 -18 -1 -27 -1l-9 10l13 21c46 14 72 25 111 49l10 -10
v-293c0 -61 10 -68 80 -68l4 -12l-27 -25c-31 1 -63 3 -95 3s-65 0 -97 -3l-9 7l30 30c18 1 54 0 54 68z" />
    <glyph glyph-name="onesuperior" unicode="&#xb9;" horiz-adv-x="352" 
d="M155 360v174c0 32 -5 50 -38 50c-10 0 -18 -1 -27 -1l-9 10l13 21c46 14 72 25 111 49l10 -10v-293c0 -61 10 -68 80 -68l4 -12l-27 -25c-32 1 -63 3 -95 3s-65 0 -97 -3l-9 7l30 30c18 1 54 0 54 68z" />
    <glyph glyph-name="multiply" unicode="&#xd7;" horiz-adv-x="889" 
d="M235 -17l-43 43l209 209l-209 209l43 43l209 -209l208 209l44 -43l-209 -209l209 -209l-44 -43l-209 209z" />
    <glyph glyph-name="registered" unicode="&#xae;" horiz-adv-x="500" 
d="M134 350v19c29 3 37 5 37 40v143c0 33 -8 32 -37 36v20h122c62 0 109 -10 109 -65c0 -49 -44 -58 -73 -65c62 -37 42 -92 68 -92c15 0 16 26 16 33h20c0 -22 -9 -69 -53 -69c-86 0 -32 122 -106 122h-11v-60c0 -39 4 -38 38 -43v-19h-130zM226 550v-57h21
c29 0 57 7 57 45c0 30 -9 50 -43 50s-35 -13 -35 -38zM250 249c-126 0 -234 99 -234 225s108 225 234 225s234 -99 234 -225s-108 -225 -234 -225zM51 474c0 -106 91 -190 199 -190s199 84 199 190s-91 190 -199 190s-199 -84 -199 -190z" />
    <glyph glyph-name="Thorn" unicode="&#xde;" horiz-adv-x="611" 
d="M147 124v434c0 81 -11 90 -93 90l-5 12l27 27c41 -2 82 -5 123 -5c46 0 92 1 137 5l9 -9l-30 -30c-37 -3 -74 -12 -74 -53v-54c41 2 82 2 123 3c78 0 219 -7 219 -164c0 -113 -87 -210 -243 -210c-33 0 -66 5 -99 9v-55c0 -81 13 -90 111 -90l5 -12l-27 -27
c-47 2 -94 5 -141 5c-46 0 -92 -1 -137 -5l-9 9l30 30c42 3 74 0 74 90zM241 495v-266c31 -8 62 -19 94 -19c92 0 143 52 143 156c0 114 -66 138 -145 138c-31 0 -61 -5 -92 -9z" />
    <glyph glyph-name="brokenbar" unicode="&#xa6;" horiz-adv-x="259" 
d="M100 310v372h60v-372h-60zM100 -248v372h60v-372h-60z" />
    <glyph glyph-name="Eth" unicode="&#xd0;" horiz-adv-x="796" 
d="M232 328v-226c0 -38 14 -56 83 -56c230 0 330 84 330 282c0 304 -202 310 -413 311v-265h181v-46h-181zM138 102v226h-73v46h73v184c0 80 -12 90 -100 90l-4 12l27 27c43 -2 86 -5 129 -5c63 0 127 3 190 3c147 0 370 -59 370 -349c0 -325 -280 -341 -416 -341
c-48 0 -96 5 -144 5c-49 0 -99 -1 -147 -5l-9 9l30 30c24 1 74 1 74 68z" />
    <glyph glyph-name="onehalf" unicode="&#xbd;" horiz-adv-x="889" 
d="M183 -5l414 668h47l6 -13l-414 -667h-45zM147 360v174c0 32 -5 50 -38 50c-9 0 -18 -1 -27 -1l-9 10l13 21c46 14 72 25 111 49l10 -10v-293c0 -61 10 -68 80 -68l5 -12l-28 -25c-31 1 -63 3 -95 3s-65 0 -97 -3l-9 7l30 30c18 1 54 0 54 68zM536 -17l-10 22
c70 137 202 189 202 281c0 36 -25 61 -62 61c-46 0 -58 -41 -58 -59v-10l-42 -15l-13 12v17c0 43 36 95 123 95c86 0 122 -42 122 -96c0 -82 -93 -137 -161 -207c-16 -16 -30 -34 -46 -51h91c73 0 80 20 103 65l28 9l9 -6l-37 -118h-249z" />
    <glyph glyph-name="minus" unicode="&#x2212;" horiz-adv-x="889" 
d="M194 202v60h501v-60h-501z" />
    <glyph glyph-name="ccedilla" unicode="&#xe7;" horiz-adv-x="481" 
d="M182 -76l44 62c-96 10 -184 95 -184 235c0 170 107 246 223 246c54 0 108 -14 158 -32c0 -39 1 -78 4 -117l-22 -26l-11 3c-18 53 -53 132 -141 132c-68 0 -131 -49 -131 -178c0 -106 37 -206 148 -206c83 0 135 67 165 100l9 -5l-12 -59c-26 -26 -85 -90 -170 -95
l-32 -40c9 1 20 3 30 3c37 0 66 -26 66 -60c0 -38 -32 -72 -80 -72c-35 0 -52 16 -72 35l10 16h13c12 -10 26 -19 41 -19c21 0 38 16 38 36c0 18 -14 34 -36 34c-12 0 -27 -7 -39 -13z" />
    <glyph glyph-name="eth" unicode="&#xf0;" 
d="M436 664l-98 -51c65 -102 158 -222 158 -395c0 -136 -110 -235 -228 -235c-115 0 -232 80 -232 255c0 118 106 229 229 229c24 0 48 -3 70 -7l-68 114l-105 -56l-13 10v32l90 49c-33 40 -51 57 -96 57c-16 0 -31 0 -46 -1l-8 14l32 27c41 3 79 5 122 13l64 -75l118 63
l11 -3v-40zM116 235c0 -122 63 -212 154 -212c77 0 146 54 146 185c0 143 -52 219 -152 219c-83 0 -148 -59 -148 -192z" />
    <glyph glyph-name="plusminus" unicode="&#xb1;" horiz-adv-x="889" 
d="M414 -17v219h-219v60h219v219h60v-219h220v-60h-220v-219h-60zM194 -146v60h501v-60h-501z" />
    <glyph glyph-name="Ccedilla" unicode="&#xc7;" horiz-adv-x="704" 
d="M294 -76l45 64c-173 25 -292 175 -292 356c0 210 139 355 376 355c78 0 153 -24 228 -44v-75c0 -36 5 -72 8 -108l-25 -31h-14c-11 66 -38 208 -221 208c-139 0 -247 -96 -247 -296c0 -144 75 -310 257 -310c136 0 202 113 221 139l37 14l8 -8
c-15 -53 -88 -205 -283 -205c-6 0 -12 0 -18 1l-32 -40c9 1 20 3 30 3c37 0 66 -26 66 -60c0 -38 -32 -72 -80 -72c-35 0 -52 16 -72 35l10 16h13c12 -10 26 -19 41 -19c21 0 38 16 38 36c0 18 -14 34 -36 34c-12 0 -27 -7 -39 -13z" />
    <glyph glyph-name="thorn" unicode="&#xfe;" horiz-adv-x="574" 
d="M166 191c0 -107 53 -168 138 -168c120 0 148 125 148 189c0 137 -69 195 -141 195c-145 0 -145 -135 -145 -216zM86 -134v744c0 37 -44 43 -76 43l-9 11l30 26l135 29l-5 -363c42 48 92 111 174 111c94 0 197 -79 197 -228c0 -101 -70 -256 -228 -256
c-61 0 -112 29 -138 41v-158c1 -57 12 -72 124 -72l7 -10l-31 -27c-47 2 -93 5 -139 5c-39 0 -77 -1 -115 -5l-9 8l30 29c46 10 53 17 53 72z" />
    <glyph glyph-name="copyright" unicode="&#xa9;" horiz-adv-x="500" 
d="M337 434l21 1c-4 -31 -11 -97 -101 -97c-75 0 -129 56 -129 134c0 83 65 144 123 144c40 0 54 -16 71 -16c8 0 12 9 17 15h15v-102l-15 -3c-13 32 -30 85 -75 85c-47 0 -71 -44 -71 -122c0 -67 25 -112 74 -112c56 0 66 52 70 73zM250 249c-126 0 -234 99 -234 225
s108 225 234 225s234 -99 234 -225s-108 -225 -234 -225zM51 474c0 -106 91 -190 199 -190s199 84 199 190c0 107 -91 190 -199 190s-199 -83 -199 -190z" />
    <glyph glyph-name="logicalnot" unicode="&#xac;" horiz-adv-x="889" 
d="M635 45v157h-442v60h502v-217h-60z" />
    <glyph glyph-name="twosuperior" unicode="&#xb2;" horiz-adv-x="352" 
d="M42 258l-11 23c70 137 203 189 203 282c0 36 -24 60 -62 60c-48 0 -59 -41 -59 -59v-9l-41 -16l-14 12v17c0 43 37 95 124 95c85 0 122 -42 122 -96c0 -82 -94 -137 -162 -207c-16 -16 -30 -35 -45 -52h90c73 0 81 20 104 66l27 10l9 -7l-37 -119h-248z" />
    <glyph glyph-name="threesuperior" unicode="&#xb3;" horiz-adv-x="352" 
d="M78 545l-15 8c0 43 8 110 124 110c81 0 117 -41 117 -89c0 -55 -39 -80 -74 -99c40 -18 86 -36 86 -104c0 -61 -49 -118 -136 -118c-103 0 -134 60 -145 96l58 31l14 -17c4 -32 18 -70 72 -70c37 0 67 28 67 70c0 75 -70 85 -121 85l-9 15l16 22c44 0 102 20 102 80
c0 32 -27 58 -58 58c-55 0 -58 -36 -58 -64z" />
    <glyph glyph-name="trademark" unicode="&#x2122;" horiz-adv-x="611" 
d="M74 408v17c34 3 53 2 53 47v191c-58 -10 -59 -32 -78 -83h-18l5 102h234l5 -102h-18c-19 51 -20 73 -78 83v-191c0 -44 12 -43 48 -47v-17h-153zM288 408v17c34 6 46 7 46 47v156c0 35 -5 33 -34 35v19h100l55 -181h2l63 181h108v-19c-32 -4 -42 -3 -42 -41v-150
c0 -43 9 -43 37 -47v-17h-124v17c24 5 35 6 35 47v184h-2l-84 -248h-16l-73 239h-2v-175c0 -41 8 -42 29 -47v-17h-98z" />
    <glyph glyph-name="degree" unicode="&#xb0;" 
d="M268 359c-82 0 -151 66 -151 152c0 81 69 152 151 152c85 0 151 -71 151 -152c0 -86 -66 -152 -151 -152zM167 511c0 -56 47 -102 101 -102c55 0 101 46 101 102c0 54 -46 102 -101 102c-54 0 -101 -48 -101 -102z" />
    <glyph glyph-name="mu" unicode="&#xb5;" horiz-adv-x="611" 
d="M107 -227v585c0 35 -45 42 -77 42l-8 11l30 26l135 30v-278c0 -113 40 -146 99 -146c97 0 120 119 120 136v179c0 35 -44 42 -76 42l-8 11l30 26l134 30v-368c0 -62 29 -62 79 -62l4 -8l-23 -29l-135 -3l-3 91h-2c-30 -43 -83 -105 -153 -105c-23 0 -51 16 -64 39h-2
v-243l-72 -17z" />
    <glyph glyph-name="Aacute" unicode="&#xc1;" horiz-adv-x="722" 
d="M120 110l220 561l43 28l13 -6l223 -600c15 -40 25 -57 90 -59l5 -12l-27 -27c-38 2 -75 5 -113 5c-44 0 -88 -1 -130 -5l-10 9l31 30c37 4 57 15 57 39c0 10 -1 22 -5 33l-50 137h-237l-38 -105c-6 -18 -11 -39 -11 -56c0 -33 24 -46 83 -48l5 -12l-28 -27
c-40 2 -81 5 -122 5c-34 0 -69 -1 -102 -5l-10 9l30 30c35 0 63 24 83 76zM348 572l-101 -283h203l-100 283h-2zM273 775l8 19c86 49 95 60 169 129l70 -70l-4 -9l-223 -88z" />
    <glyph glyph-name="Acircumflex" unicode="&#xc2;" horiz-adv-x="722" 
d="M120 110l220 561l43 28l13 -6l223 -600c15 -40 25 -57 90 -59l5 -12l-27 -27c-38 2 -75 5 -113 5c-44 0 -88 -1 -130 -5l-10 9l31 30c37 4 57 15 57 39c0 10 -1 22 -5 33l-50 137h-237l-38 -105c-6 -18 -11 -39 -11 -56c0 -33 24 -46 83 -48l5 -12l-28 -27
c-40 2 -81 5 -122 5c-34 0 -69 -1 -102 -5l-10 9l30 30c35 0 63 24 83 76zM348 572l-101 -283h203l-100 283h-2zM214 768v20c66 59 76 69 128 135h57c34 -44 67 -80 127 -133l1 -16l-25 -18l-129 96l-136 -96z" />
    <glyph glyph-name="Adieresis" unicode="&#xc4;" horiz-adv-x="722" 
d="M120 110l220 561l43 28l13 -6l223 -600c15 -40 25 -57 90 -59l5 -12l-27 -27c-38 2 -75 5 -113 5c-44 0 -88 -1 -130 -5l-10 9l31 30c37 4 57 15 57 39c0 10 -1 22 -5 33l-50 137h-237l-38 -105c-6 -18 -11 -39 -11 -56c0 -33 24 -46 83 -48l5 -12l-28 -27
c-40 2 -81 5 -122 5c-34 0 -69 -1 -102 -5l-10 9l30 30c35 0 63 24 83 76zM348 572l-101 -283h203l-100 283h-2zM273 788c-31 0 -55 25 -55 55s24 56 55 56s55 -26 55 -56c0 -32 -26 -55 -55 -55zM448 788c-31 0 -55 25 -55 55s24 56 55 56s55 -26 55 -56
c0 -32 -26 -55 -55 -55z" />
    <glyph glyph-name="Agrave" unicode="&#xc0;" horiz-adv-x="722" 
d="M120 110l220 561l43 28l13 -6l223 -600c15 -40 25 -57 90 -59l5 -12l-27 -27c-38 2 -75 5 -113 5c-44 0 -88 -1 -130 -5l-10 9l31 30c37 4 57 15 57 39c0 10 -1 22 -5 33l-50 137h-237l-38 -105c-6 -18 -11 -39 -11 -56c0 -33 24 -46 83 -48l5 -12l-28 -27
c-40 2 -81 5 -122 5c-34 0 -69 -1 -102 -5l-10 9l30 30c35 0 63 24 83 76zM348 572l-101 -283h203l-100 283h-2zM468 756l-223 88l-4 9l69 70c74 -69 84 -80 169 -129l9 -19z" />
    <glyph glyph-name="Aring" unicode="&#xc5;" horiz-adv-x="722" 
d="M120 110l220 561l43 28l13 -6l223 -600c15 -40 25 -57 90 -59l5 -12l-27 -27c-38 2 -75 5 -113 5c-44 0 -88 -1 -130 -5l-10 9l31 30c37 4 57 15 57 39c0 10 -1 22 -5 33l-50 137h-237l-38 -105c-6 -18 -11 -39 -11 -56c0 -33 24 -46 83 -48l5 -12l-28 -27
c-40 2 -81 5 -122 5c-34 0 -69 -1 -102 -5l-10 9l30 30c35 0 63 24 83 76zM348 572l-101 -283h203l-100 283h-2zM371 756c-54 0 -98 43 -98 98c0 53 42 98 98 98c53 0 98 -44 98 -98s-44 -98 -98 -98zM311 854c0 -34 27 -60 60 -60s60 27 60 60c0 34 -28 60 -60 60
c-35 0 -60 -28 -60 -60z" />
    <glyph glyph-name="Atilde" unicode="&#xc3;" horiz-adv-x="722" 
d="M120 110l220 561l43 28l13 -6l223 -600c15 -40 25 -57 90 -59l5 -12l-27 -27c-38 2 -75 5 -113 5c-44 0 -88 -1 -130 -5l-10 9l31 30c37 4 57 15 57 39c0 10 -1 22 -5 33l-50 137h-237l-38 -105c-6 -18 -11 -39 -11 -56c0 -33 24 -46 83 -48l5 -12l-28 -27
c-40 2 -81 5 -122 5c-34 0 -69 -1 -102 -5l-10 9l30 30c35 0 63 24 83 76zM348 572l-101 -283h203l-100 283h-2zM190 794l34 66c13 25 20 32 45 32c30 0 73 -12 110 -22c30 -9 54 -15 64 -15c25 0 37 9 59 37l29 -7l-32 -60c-14 -27 -19 -37 -52 -37c-23 0 -57 9 -82 16
c-37 11 -70 21 -89 21c-24 0 -28 -10 -54 -37z" />
    <glyph glyph-name="Eacute" unicode="&#xc9;" horiz-adv-x="630" 
d="M138 130v428c0 80 -12 90 -100 90l-4 12l27 27c42 -2 85 -5 128 -5c119 0 239 3 359 5c5 -70 9 -106 19 -177l-38 -23l-9 7c-14 111 -20 142 -212 142c-25 0 -50 -2 -76 -4v-255h101c70 0 78 8 78 97l38 23l8 -5c-2 -47 -5 -105 -5 -157c0 -35 3 -69 5 -105l-37 -23
l-9 10c0 97 -17 114 -78 114h-101v-201c0 -84 27 -84 153 -84c129 0 132 92 145 166l42 29l10 -10c-12 -78 -17 -113 -29 -236c-124 2 -249 5 -373 5c-46 0 -91 -3 -137 -5l-9 9l30 30c56 6 74 17 74 96zM227 775l8 19c86 49 95 60 169 129l70 -70l-4 -9l-223 -88z" />
    <glyph glyph-name="Ecircumflex" unicode="&#xca;" horiz-adv-x="630" 
d="M138 130v428c0 80 -12 90 -100 90l-4 12l27 27c42 -2 85 -5 128 -5c119 0 239 3 359 5c5 -70 9 -106 19 -177l-38 -23l-9 7c-14 111 -20 142 -212 142c-25 0 -50 -2 -76 -4v-255h101c70 0 78 8 78 97l38 23l8 -5c-2 -47 -5 -105 -5 -157c0 -35 3 -69 5 -105l-37 -23
l-9 10c0 97 -17 114 -78 114h-101v-201c0 -84 27 -84 153 -84c129 0 132 92 145 166l42 29l10 -10c-12 -78 -17 -113 -29 -236c-124 2 -249 5 -373 5c-46 0 -91 -3 -137 -5l-9 9l30 30c56 6 74 17 74 96zM168 768v20c66 59 76 69 128 135h57c34 -44 67 -80 127 -133l1 -16
l-25 -18l-129 96l-136 -96z" />
    <glyph glyph-name="Edieresis" unicode="&#xcb;" horiz-adv-x="630" 
d="M138 130v428c0 80 -12 90 -100 90l-4 12l27 27c42 -2 85 -5 128 -5c119 0 239 3 359 5c5 -70 9 -106 19 -177l-38 -23l-9 7c-14 111 -20 142 -212 142c-25 0 -50 -2 -76 -4v-255h101c70 0 78 8 78 97l38 23l8 -5c-2 -47 -5 -105 -5 -157c0 -35 3 -69 5 -105l-37 -23
l-9 10c0 97 -17 114 -78 114h-101v-201c0 -84 27 -84 153 -84c129 0 132 92 145 166l42 29l10 -10c-12 -78 -17 -113 -29 -236c-124 2 -249 5 -373 5c-46 0 -91 -3 -137 -5l-9 9l30 30c56 6 74 17 74 96zM227 788c-31 0 -55 25 -55 55s24 56 55 56s55 -26 55 -56
c0 -32 -26 -55 -55 -55zM402 788c-31 0 -55 25 -55 55s24 56 55 56s55 -26 55 -56c0 -32 -26 -55 -55 -55z" />
    <glyph glyph-name="Egrave" unicode="&#xc8;" horiz-adv-x="630" 
d="M138 130v428c0 80 -12 90 -100 90l-4 12l27 27c42 -2 85 -5 128 -5c119 0 239 3 359 5c5 -70 9 -106 19 -177l-38 -23l-9 7c-14 111 -20 142 -212 142c-25 0 -50 -2 -76 -4v-255h101c70 0 78 8 78 97l38 23l8 -5c-2 -47 -5 -105 -5 -157c0 -35 3 -69 5 -105l-37 -23
l-9 10c0 97 -17 114 -78 114h-101v-201c0 -84 27 -84 153 -84c129 0 132 92 145 166l42 29l10 -10c-12 -78 -17 -113 -29 -236c-124 2 -249 5 -373 5c-46 0 -91 -3 -137 -5l-9 9l30 30c56 6 74 17 74 96zM422 756l-223 88l-4 9l69 70c74 -69 84 -80 169 -129l9 -19z" />
    <glyph glyph-name="Iacute" unicode="&#xcd;" horiz-adv-x="370" 
d="M138 124v434c0 80 -20 90 -100 90l-4 12l27 27c43 -2 86 -5 129 -5c46 0 92 0 137 5l9 -9l-30 -30c-24 -2 -74 -2 -74 -90v-434c0 -81 12 -90 99 -90l5 -12l-27 -27c-43 2 -86 5 -129 5c-46 0 -92 -1 -137 -5l-9 9l30 30c39 7 74 2 74 90zM77 775l8 19
c86 49 95 60 169 129l70 -70l-4 -9l-223 -88z" />
    <glyph glyph-name="Icircumflex" unicode="&#xce;" horiz-adv-x="370" 
d="M138 124v434c0 80 -20 90 -100 90l-4 12l27 27c43 -2 86 -5 129 -5c46 0 92 0 137 5l9 -9l-30 -30c-24 -2 -74 -2 -74 -90v-434c0 -81 12 -90 99 -90l5 -12l-27 -27c-43 2 -86 5 -129 5c-46 0 -92 -1 -137 -5l-9 9l30 30c39 7 74 2 74 90zM28 768v20c66 59 76 69 128 135
h57c34 -44 67 -80 127 -133l1 -16l-25 -18l-129 96l-136 -96z" />
    <glyph glyph-name="Idieresis" unicode="&#xcf;" horiz-adv-x="370" 
d="M138 124v434c0 80 -20 90 -100 90l-4 12l27 27c43 -2 86 -5 129 -5c46 0 92 0 137 5l9 -9l-30 -30c-24 -2 -74 -2 -74 -90v-434c0 -81 12 -90 99 -90l5 -12l-27 -27c-43 2 -86 5 -129 5c-46 0 -92 -1 -137 -5l-9 9l30 30c39 7 74 2 74 90zM87 788c-31 0 -55 25 -55 55
s24 56 55 56s55 -26 55 -56c0 -32 -26 -55 -55 -55zM262 788c-31 0 -55 25 -55 55s24 56 55 56s55 -26 55 -56c0 -32 -26 -55 -55 -55z" />
    <glyph glyph-name="Igrave" unicode="&#xcc;" horiz-adv-x="370" 
d="M138 124v434c0 80 -20 90 -100 90l-4 12l27 27c43 -2 86 -5 129 -5c46 0 92 0 137 5l9 -9l-30 -30c-24 -2 -74 -2 -74 -90v-434c0 -81 12 -90 99 -90l5 -12l-27 -27c-43 2 -86 5 -129 5c-46 0 -92 -1 -137 -5l-9 9l30 30c39 7 74 2 74 90zM277 756l-223 88l-4 9l69 70
c74 -69 84 -80 169 -129l9 -19z" />
    <glyph glyph-name="Ntilde" unicode="&#xd1;" horiz-adv-x="796" 
d="M132 136v454c0 56 -32 54 -100 58l-5 12l27 27c36 -2 71 -5 106 -5c23 0 46 2 68 5l378 -541h2v400c0 91 -12 102 -105 102l-5 12l27 27c39 -2 78 -5 118 -5c41 0 82 0 123 5l9 -9l-30 -30c-27 -2 -82 0 -82 -102v-563h-40l-434 606h-2v-453c0 -91 26 -102 105 -102
l5 -12l-27 -27c-39 2 -78 5 -118 5c-41 0 -82 -1 -123 -5l-9 9l30 30c27 1 82 0 82 102zM247 794l34 66c13 25 20 32 45 32c30 0 73 -12 110 -22c30 -9 54 -15 64 -15c25 0 37 9 59 37l29 -7l-32 -60c-14 -27 -19 -37 -52 -37c-23 0 -57 9 -82 16c-37 11 -70 21 -89 21
c-24 0 -28 -10 -54 -37z" />
    <glyph glyph-name="Oacute" unicode="&#xd3;" horiz-adv-x="796" 
d="M403 -17c-207 0 -356 153 -356 374c0 162 136 342 350 342c202 0 351 -169 351 -369c0 -198 -147 -347 -345 -347zM152 343c0 -175 105 -310 254 -310c150 0 237 118 237 280c0 163 -85 336 -254 336c-126 0 -237 -87 -237 -306zM300 775l8 19c86 49 95 60 169 129
l70 -70l-4 -9l-223 -88z" />
    <glyph glyph-name="Ocircumflex" unicode="&#xd4;" horiz-adv-x="796" 
d="M403 -17c-207 0 -356 153 -356 374c0 162 136 342 350 342c202 0 351 -169 351 -369c0 -198 -147 -347 -345 -347zM152 343c0 -175 105 -310 254 -310c150 0 237 118 237 280c0 163 -85 336 -254 336c-126 0 -237 -87 -237 -306zM241 768v20c66 59 76 69 128 135h57
c34 -44 67 -80 127 -133l1 -16l-25 -18l-129 96l-136 -96z" />
    <glyph glyph-name="Odieresis" unicode="&#xd6;" horiz-adv-x="796" 
d="M403 -17c-207 0 -356 153 -356 374c0 162 136 342 350 342c202 0 351 -169 351 -369c0 -198 -147 -347 -345 -347zM152 343c0 -175 105 -310 254 -310c150 0 237 118 237 280c0 163 -85 336 -254 336c-126 0 -237 -87 -237 -306zM310 788c-31 0 -55 25 -55 55
s24 56 55 56s55 -26 55 -56c0 -32 -26 -55 -55 -55zM485 788c-31 0 -55 25 -55 55s24 56 55 56s55 -26 55 -56c0 -32 -26 -55 -55 -55z" />
    <glyph glyph-name="Ograve" unicode="&#xd2;" horiz-adv-x="796" 
d="M403 -17c-207 0 -356 153 -356 374c0 162 136 342 350 342c202 0 351 -169 351 -369c0 -198 -147 -347 -345 -347zM152 343c0 -175 105 -310 254 -310c150 0 237 118 237 280c0 163 -85 336 -254 336c-126 0 -237 -87 -237 -306zM495 756l-223 88l-4 9l69 70
c74 -69 84 -80 169 -129l9 -19z" />
    <glyph glyph-name="Otilde" unicode="&#xd5;" horiz-adv-x="796" 
d="M403 -17c-207 0 -356 153 -356 374c0 162 136 342 350 342c202 0 351 -169 351 -369c0 -198 -147 -347 -345 -347zM152 343c0 -175 105 -310 254 -310c150 0 237 118 237 280c0 163 -85 336 -254 336c-126 0 -237 -87 -237 -306zM227 794l34 66c13 25 20 32 45 32
c30 0 73 -12 110 -22c30 -9 54 -15 64 -15c25 0 37 9 59 37l29 -7l-32 -60c-14 -27 -19 -37 -52 -37c-23 0 -57 9 -82 16c-37 11 -70 21 -89 21c-24 0 -28 -10 -54 -37z" />
    <glyph glyph-name="Scaron" unicode="&#x160;" horiz-adv-x="519" 
d="M430 517l-13 2c-21 57 -49 130 -151 130c-76 0 -118 -49 -118 -107c0 -161 341 -126 341 -349c0 -123 -98 -210 -211 -210c-77 0 -161 17 -226 52c5 20 5 55 5 81c0 25 -2 49 -5 74l28 32l10 -4c13 -66 27 -185 179 -185c91 0 145 61 145 132c0 175 -341 123 -341 343
c0 108 68 191 205 191c53 0 106 -13 156 -29c5 -53 10 -95 21 -124zM298 756h-56c-35 44 -67 80 -128 133l-1 17l25 17l130 -96l135 96l23 -12v-20c-65 -59 -76 -69 -128 -135z" />
    <glyph glyph-name="Uacute" unicode="&#xda;" horiz-adv-x="815" 
d="M681 558v-326c0 -101 -15 -249 -274 -249c-147 0 -270 48 -270 253v322c0 72 -12 90 -100 90l-5 12l28 27c43 -2 86 -5 129 -5c45 0 92 0 137 5l9 -9l-30 -30c-24 -2 -74 -2 -74 -90v-322c0 -120 43 -203 202 -203c143 0 198 73 198 199v326c0 64 -13 90 -106 90l-5 12
l28 27c39 -2 78 -5 117 -5c37 0 72 0 108 5l9 -9l-30 -30c-24 -2 -71 0 -71 -90zM320 775l8 19c86 49 95 60 169 129l70 -70l-4 -9l-223 -88z" />
    <glyph glyph-name="Ucircumflex" unicode="&#xdb;" horiz-adv-x="815" 
d="M681 558v-326c0 -101 -15 -249 -274 -249c-147 0 -270 48 -270 253v322c0 72 -12 90 -100 90l-5 12l28 27c43 -2 86 -5 129 -5c45 0 92 0 137 5l9 -9l-30 -30c-24 -2 -74 -2 -74 -90v-322c0 -120 43 -203 202 -203c143 0 198 73 198 199v326c0 64 -13 90 -106 90l-5 12
l28 27c39 -2 78 -5 117 -5c37 0 72 0 108 5l9 -9l-30 -30c-24 -2 -71 0 -71 -90zM251 768v20c66 59 76 69 128 135h57c34 -44 67 -80 127 -133l1 -16l-25 -18l-129 96l-136 -96z" />
    <glyph glyph-name="Udieresis" unicode="&#xdc;" horiz-adv-x="815" 
d="M681 558v-326c0 -101 -15 -249 -274 -249c-147 0 -270 48 -270 253v322c0 72 -12 90 -100 90l-5 12l28 27c43 -2 86 -5 129 -5c45 0 92 0 137 5l9 -9l-30 -30c-24 -2 -74 -2 -74 -90v-322c0 -120 43 -203 202 -203c143 0 198 73 198 199v326c0 64 -13 90 -106 90l-5 12
l28 27c39 -2 78 -5 117 -5c37 0 72 0 108 5l9 -9l-30 -30c-24 -2 -71 0 -71 -90zM330 788c-31 0 -55 25 -55 55s24 56 55 56s55 -26 55 -56c0 -32 -26 -55 -55 -55zM505 788c-31 0 -55 25 -55 55s24 56 55 56s55 -26 55 -56c0 -32 -26 -55 -55 -55z" />
    <glyph glyph-name="Ugrave" unicode="&#xd9;" horiz-adv-x="815" 
d="M681 558v-326c0 -101 -15 -249 -274 -249c-147 0 -270 48 -270 253v322c0 72 -12 90 -100 90l-5 12l28 27c43 -2 86 -5 129 -5c45 0 92 0 137 5l9 -9l-30 -30c-24 -2 -74 -2 -74 -90v-322c0 -120 43 -203 202 -203c143 0 198 73 198 199v326c0 64 -13 90 -106 90l-5 12
l28 27c39 -2 78 -5 117 -5c37 0 72 0 108 5l9 -9l-30 -30c-24 -2 -71 0 -71 -90zM505 756l-223 88l-4 9l69 70c74 -69 84 -80 169 -129l9 -19z" />
    <glyph glyph-name="Yacute" unicode="&#xdd;" horiz-adv-x="722" 
d="M317 124v166l-184 273c-58 85 -72 84 -114 85l-5 12l27 27c41 -2 82 -5 123 -5c46 0 92 0 137 5l9 -9l-30 -30c-27 0 -63 0 -63 -26c0 -16 25 -56 43 -83l124 -190l118 204c11 19 23 40 23 58c0 27 -21 35 -73 37l-5 12l27 27c41 -2 82 -5 122 -5c35 0 69 0 103 5l9 -9
l-30 -30c-55 0 -80 -40 -115 -96l-152 -252v-176c0 -81 14 -90 111 -90l5 -12l-28 -27c-46 2 -93 5 -140 5c-49 0 -99 -1 -148 -5l-9 9l30 30c46 6 85 2 85 90zM263 775l8 19c86 49 95 60 169 129l70 -70l-4 -9l-223 -88z" />
    <glyph glyph-name="Ydieresis" unicode="&#x178;" horiz-adv-x="722" 
d="M317 124v166l-184 273c-58 85 -72 84 -114 85l-5 12l27 27c41 -2 82 -5 123 -5c46 0 92 0 137 5l9 -9l-30 -30c-27 0 -63 0 -63 -26c0 -16 25 -56 43 -83l124 -190l118 204c11 19 23 40 23 58c0 27 -21 35 -73 37l-5 12l27 27c41 -2 82 -5 122 -5c35 0 69 0 103 5l9 -9
l-30 -30c-55 0 -80 -40 -115 -96l-152 -252v-176c0 -81 14 -90 111 -90l5 -12l-28 -27c-46 2 -93 5 -140 5c-49 0 -99 -1 -148 -5l-9 9l30 30c46 6 85 2 85 90zM273 788c-31 0 -55 25 -55 55s24 56 55 56s55 -26 55 -56c0 -32 -26 -55 -55 -55zM448 788c-31 0 -55 25 -55 55
s24 56 55 56s55 -26 55 -56c0 -32 -26 -55 -55 -55z" />
    <glyph glyph-name="Zcaron" unicode="&#x17d;" horiz-adv-x="593" 
d="M39 18l391 617h-164c-137 0 -138 -40 -150 -122l-43 -29l-8 7c12 64 18 119 23 194c71 -3 143 -3 215 -3c78 0 156 2 234 3l10 -33l-385 -605h129c202 0 203 43 229 162l42 29l9 -7c-18 -76 -30 -142 -43 -234c-75 2 -150 3 -225 3c-84 0 -168 -2 -253 -3zM335 756h-56
c-35 44 -67 80 -128 133l-1 17l25 17l130 -96l135 96l23 -12v-20c-65 -59 -76 -69 -128 -135z" />
    <glyph glyph-name="aacute" unicode="&#xe1;" horiz-adv-x="500" 
d="M485 29l-23 -29l-135 -3c0 44 2 49 8 91l-2 2c-26 -33 -99 -107 -173 -107c-76 0 -125 59 -125 129c0 165 234 165 295 165c0 86 -7 150 -82 150c-60 0 -83 -26 -83 -47v-31l-94 -34l-8 6v21c0 104 138 125 225 125c103 0 117 -62 117 -133v-235c0 -61 28 -62 76 -62z
M330 206v39c-65 -6 -215 -27 -215 -120c0 -53 29 -82 70 -82c90 0 145 87 145 163zM142 543l8 19c86 49 95 60 169 129l70 -70l-4 -9l-223 -88z" />
    <glyph glyph-name="acircumflex" unicode="&#xe2;" horiz-adv-x="500" 
d="M485 29l-23 -29l-135 -3c0 44 2 49 8 91l-2 2c-26 -33 -99 -107 -173 -107c-76 0 -125 59 -125 129c0 165 234 165 295 165c0 86 -7 150 -82 150c-60 0 -83 -26 -83 -47v-31l-94 -34l-8 6v21c0 104 138 125 225 125c103 0 117 -62 117 -133v-235c0 -61 28 -62 76 -62z
M330 206v39c-65 -6 -215 -27 -215 -120c0 -53 29 -82 70 -82c90 0 145 87 145 163zM93 536v20c66 59 76 69 128 135h57c34 -44 67 -80 127 -133l1 -16l-25 -18l-129 96l-136 -96z" />
    <glyph glyph-name="adieresis" unicode="&#xe4;" horiz-adv-x="500" 
d="M485 29l-23 -29l-135 -3c0 44 2 49 8 91l-2 2c-26 -33 -99 -107 -173 -107c-76 0 -125 59 -125 129c0 165 234 165 295 165c0 86 -7 150 -82 150c-60 0 -83 -26 -83 -47v-31l-94 -34l-8 6v21c0 104 138 125 225 125c103 0 117 -62 117 -133v-235c0 -61 28 -62 76 -62z
M330 206v39c-65 -6 -215 -27 -215 -120c0 -53 29 -82 70 -82c90 0 145 87 145 163zM162 556c-31 0 -55 25 -55 55s24 56 55 56s55 -26 55 -56c0 -32 -26 -55 -55 -55zM337 556c-31 0 -55 25 -55 55s24 56 55 56s55 -26 55 -56c0 -32 -26 -55 -55 -55z" />
    <glyph glyph-name="agrave" unicode="&#xe0;" horiz-adv-x="500" 
d="M485 29l-23 -29l-135 -3c0 44 2 49 8 91l-2 2c-26 -33 -99 -107 -173 -107c-76 0 -125 59 -125 129c0 165 234 165 295 165c0 86 -7 150 -82 150c-60 0 -83 -26 -83 -47v-31l-94 -34l-8 6v21c0 104 138 125 225 125c103 0 117 -62 117 -133v-235c0 -61 28 -62 76 -62z
M330 206v39c-65 -6 -215 -27 -215 -120c0 -53 29 -82 70 -82c90 0 145 87 145 163zM357 524l-223 88l-4 9l69 70c74 -69 84 -80 169 -129l9 -19z" />
    <glyph glyph-name="aring" unicode="&#xe5;" horiz-adv-x="500" 
d="M485 29l-23 -29l-135 -3c0 44 2 49 8 91l-2 2c-26 -33 -99 -107 -173 -107c-76 0 -125 59 -125 129c0 165 234 165 295 165c0 86 -7 150 -82 150c-60 0 -83 -26 -83 -47v-31l-94 -34l-8 6v21c0 104 138 125 225 125c103 0 117 -62 117 -133v-235c0 -61 28 -62 76 -62z
M330 206v39c-65 -6 -215 -27 -215 -120c0 -53 29 -82 70 -82c90 0 145 87 145 163zM250 524c-54 0 -98 43 -98 98c0 53 42 98 98 98c53 0 98 -44 98 -98s-44 -98 -98 -98zM190 622c0 -34 27 -60 60 -60s60 27 60 60c0 34 -28 60 -60 60c-35 0 -60 -28 -60 -60z" />
    <glyph glyph-name="atilde" unicode="&#xe3;" horiz-adv-x="500" 
d="M485 29l-23 -29l-135 -3c0 44 2 49 8 91l-2 2c-26 -33 -99 -107 -173 -107c-76 0 -125 59 -125 129c0 165 234 165 295 165c0 86 -7 150 -82 150c-60 0 -83 -26 -83 -47v-31l-94 -34l-8 6v21c0 104 138 125 225 125c103 0 117 -62 117 -133v-235c0 -61 28 -62 76 -62z
M330 206v39c-65 -6 -215 -27 -215 -120c0 -53 29 -82 70 -82c90 0 145 87 145 163zM79 562l34 66c13 25 20 32 45 32c30 0 73 -12 110 -22c30 -9 54 -15 64 -15c25 0 37 9 59 37l29 -7l-32 -60c-14 -27 -19 -37 -52 -37c-23 0 -57 9 -82 16c-37 11 -70 21 -89 21
c-24 0 -28 -10 -54 -37z" />
    <glyph glyph-name="eacute" unicode="&#xe9;" horiz-adv-x="500" 
d="M456 114l-12 -57c-31 -23 -95 -74 -182 -74c-114 0 -219 86 -219 233c0 151 96 251 226 251c110 0 182 -78 182 -166c0 -27 -10 -35 -18 -42h-310c0 -71 21 -216 159 -216c76 0 119 39 163 77zM123 294l253 9c-9 42 -30 124 -126 124c-98 0 -122 -88 -127 -133zM142 543
l8 19c86 49 95 60 169 129l70 -70l-4 -9l-223 -88z" />
    <glyph glyph-name="ecircumflex" unicode="&#xea;" horiz-adv-x="500" 
d="M456 114l-12 -57c-31 -23 -95 -74 -182 -74c-114 0 -219 86 -219 233c0 151 96 251 226 251c110 0 182 -78 182 -166c0 -27 -10 -35 -18 -42h-310c0 -71 21 -216 159 -216c76 0 119 39 163 77zM123 294l253 9c-9 42 -30 124 -126 124c-98 0 -122 -88 -127 -133zM93 536
v20c66 59 76 69 128 135h57c34 -44 67 -80 127 -133l1 -16l-25 -18l-129 96l-136 -96z" />
    <glyph glyph-name="edieresis" unicode="&#xeb;" horiz-adv-x="500" 
d="M456 114l-12 -57c-31 -23 -95 -74 -182 -74c-114 0 -219 86 -219 233c0 151 96 251 226 251c110 0 182 -78 182 -166c0 -27 -10 -35 -18 -42h-310c0 -71 21 -216 159 -216c76 0 119 39 163 77zM123 294l253 9c-9 42 -30 124 -126 124c-98 0 -122 -88 -127 -133zM152 556
c-31 0 -55 25 -55 55s24 56 55 56s55 -26 55 -56c0 -32 -26 -55 -55 -55zM327 556c-31 0 -55 25 -55 55s24 56 55 56s55 -26 55 -56c0 -32 -26 -55 -55 -55z" />
    <glyph glyph-name="egrave" unicode="&#xe8;" horiz-adv-x="500" 
d="M456 114l-12 -57c-31 -23 -95 -74 -182 -74c-114 0 -219 86 -219 233c0 151 96 251 226 251c110 0 182 -78 182 -166c0 -27 -10 -35 -18 -42h-310c0 -71 21 -216 159 -216c76 0 119 39 163 77zM123 294l253 9c-9 42 -30 124 -126 124c-98 0 -122 -88 -127 -133zM357 524
l-223 88l-4 9l69 70c74 -69 84 -80 169 -129l9 -19z" />
    <glyph glyph-name="iacute" unicode="&#xed;" horiz-adv-x="296" 
d="M111 104v254c0 35 -44 42 -76 42l-9 11l31 26l134 30v-363c0 -57 8 -72 79 -72l6 -10l-31 -27c-31 2 -62 5 -93 5c-42 0 -84 -1 -125 -5l-8 8l30 28c54 10 62 17 62 73zM40 543l8 19c86 49 95 60 169 129l70 -70l-4 -9l-223 -88z" />
    <glyph glyph-name="icircumflex" unicode="&#xee;" horiz-adv-x="296" 
d="M111 104v254c0 35 -44 42 -76 42l-9 11l31 26l134 30v-363c0 -57 8 -72 79 -72l6 -10l-31 -27c-31 2 -62 5 -93 5c-42 0 -84 -1 -125 -5l-8 8l30 28c54 10 62 17 62 73zM-19 536v20c66 59 76 69 128 135h57c34 -44 67 -80 127 -133l1 -16l-25 -18l-129 96l-136 -96z" />
    <glyph glyph-name="idieresis" unicode="&#xef;" horiz-adv-x="296" 
d="M111 104v254c0 35 -44 42 -76 42l-9 11l31 26l134 30v-363c0 -57 8 -72 79 -72l6 -10l-31 -27c-31 2 -62 5 -93 5c-42 0 -84 -1 -125 -5l-8 8l30 28c54 10 62 17 62 73zM50 556c-31 0 -55 25 -55 55s24 56 55 56s55 -26 55 -56c0 -32 -26 -55 -55 -55zM225 556
c-31 0 -55 25 -55 55s24 56 55 56s55 -26 55 -56c0 -32 -26 -55 -55 -55z" />
    <glyph glyph-name="igrave" unicode="&#xec;" horiz-adv-x="296" 
d="M111 104v254c0 35 -44 42 -76 42l-9 11l31 26l134 30v-363c0 -57 8 -72 79 -72l6 -10l-31 -27c-31 2 -62 5 -93 5c-42 0 -84 -1 -125 -5l-8 8l30 28c54 10 62 17 62 73zM255 524l-223 88l-4 9l69 70c74 -69 84 -80 169 -129l9 -19z" />
    <glyph glyph-name="ntilde" unicode="&#xf1;" horiz-adv-x="593" 
d="M110 104v254c0 35 -44 42 -76 42l-9 11l31 26l134 30v-92c32 34 84 92 154 92c118 0 146 -113 146 -171v-192c0 -57 8 -72 79 -72l6 -10l-31 -27c-31 2 -62 5 -93 5c-42 0 -83 -1 -125 -5l-8 8l30 29c54 10 62 17 62 72v192c0 50 -33 111 -100 111
c-97 0 -120 -109 -120 -124v-179c0 -57 8 -72 79 -72l6 -10l-31 -27c-31 2 -62 5 -93 5c-42 0 -84 -1 -125 -5l-8 8l30 29c54 10 62 17 62 72zM126 562l34 66c13 25 20 32 45 32c30 0 73 -12 110 -22c30 -9 54 -15 64 -15c25 0 37 9 59 37l29 -7l-32 -60
c-14 -27 -19 -37 -52 -37c-23 0 -57 9 -82 16c-37 11 -70 21 -89 21c-24 0 -28 -10 -54 -37z" />
    <glyph glyph-name="oacute" unicode="&#xf3;" 
d="M270 -17c-115 0 -232 80 -232 255c0 118 106 229 229 229c125 0 231 -103 231 -249c0 -136 -110 -235 -228 -235zM128 235c0 -122 59 -212 144 -212c72 0 136 54 136 185c0 143 -68 219 -142 219c-77 0 -138 -59 -138 -192zM161 543l8 19c86 49 95 60 169 129l70 -70
l-4 -9l-223 -88z" />
    <glyph glyph-name="ocircumflex" unicode="&#xf4;" 
d="M270 -17c-115 0 -232 80 -232 255c0 118 106 229 229 229c125 0 231 -103 231 -249c0 -136 -110 -235 -228 -235zM128 235c0 -122 59 -212 144 -212c72 0 136 54 136 185c0 143 -68 219 -142 219c-77 0 -138 -59 -138 -192zM112 536v20c66 59 76 69 128 135h57
c34 -44 67 -80 127 -133l1 -16l-25 -18l-129 96l-136 -96z" />
    <glyph glyph-name="odieresis" unicode="&#xf6;" 
d="M270 -17c-115 0 -232 80 -232 255c0 118 106 229 229 229c125 0 231 -103 231 -249c0 -136 -110 -235 -228 -235zM128 235c0 -122 59 -212 144 -212c72 0 136 54 136 185c0 143 -68 219 -142 219c-77 0 -138 -59 -138 -192zM181 556c-31 0 -55 25 -55 55s24 56 55 56
s55 -26 55 -56c0 -32 -26 -55 -55 -55zM356 556c-31 0 -55 25 -55 55s24 56 55 56s55 -26 55 -56c0 -32 -26 -55 -55 -55z" />
    <glyph glyph-name="ograve" unicode="&#xf2;" 
d="M270 -17c-115 0 -232 80 -232 255c0 118 106 229 229 229c125 0 231 -103 231 -249c0 -136 -110 -235 -228 -235zM128 235c0 -122 59 -212 144 -212c72 0 136 54 136 185c0 143 -68 219 -142 219c-77 0 -138 -59 -138 -192zM366 524l-223 88l-4 9l69 70
c74 -69 84 -80 169 -129l9 -19z" />
    <glyph glyph-name="otilde" unicode="&#xf5;" 
d="M270 -17c-115 0 -232 80 -232 255c0 118 106 229 229 229c125 0 231 -103 231 -249c0 -136 -110 -235 -228 -235zM128 235c0 -122 59 -212 144 -212c72 0 136 54 136 185c0 143 -68 219 -142 219c-77 0 -138 -59 -138 -192zM98 562l34 66c13 25 20 32 45 32
c30 0 73 -12 110 -22c30 -9 54 -15 64 -15c25 0 37 9 59 37l29 -7l-32 -60c-14 -27 -19 -37 -52 -37c-23 0 -57 9 -82 16c-37 11 -70 21 -89 21c-24 0 -28 -10 -54 -37z" />
    <glyph glyph-name="scaron" unicode="&#x161;" horiz-adv-x="426" 
d="M338 326l-11 6c-19 47 -34 95 -110 95c-52 0 -82 -34 -82 -69c0 -109 255 -53 255 -224c0 -86 -55 -151 -170 -151c-58 0 -115 15 -169 35c0 43 -2 83 -5 113l25 31l10 -7c10 -45 30 -132 129 -132c67 0 105 39 105 95c0 119 -255 51 -255 218c0 69 49 131 158 131
c61 0 121 -20 134 -25l10 -85zM241 524h-56c-35 44 -67 80 -128 133l-1 17l25 17l130 -96l135 96l23 -12v-20c-65 -59 -76 -69 -128 -135z" />
    <glyph glyph-name="uacute" unicode="&#xfa;" horiz-adv-x="593" 
d="M411 -3l-3 91h-2c-30 -43 -83 -105 -153 -105c-119 0 -146 118 -146 179v196c0 35 -45 42 -77 42l-8 11l30 26l135 30v-278c0 -66 34 -146 99 -146c97 0 120 119 120 136v179c0 35 -44 42 -76 42l-8 11l30 26l134 30v-368c0 -62 29 -62 79 -62l4 -8l-23 -29zM189 543
l8 19c86 49 95 60 169 129l70 -70l-4 -9l-223 -88z" />
    <glyph glyph-name="ucircumflex" unicode="&#xfb;" horiz-adv-x="593" 
d="M411 -3l-3 91h-2c-30 -43 -83 -105 -153 -105c-119 0 -146 118 -146 179v196c0 35 -45 42 -77 42l-8 11l30 26l135 30v-278c0 -66 34 -146 99 -146c97 0 120 119 120 136v179c0 35 -44 42 -76 42l-8 11l30 26l134 30v-368c0 -62 29 -62 79 -62l4 -8l-23 -29zM140 536v20
c66 59 76 69 128 135h57c34 -44 67 -80 127 -133l1 -16l-25 -18l-129 96l-136 -96z" />
    <glyph glyph-name="udieresis" unicode="&#xfc;" horiz-adv-x="593" 
d="M411 -3l-3 91h-2c-30 -43 -83 -105 -153 -105c-119 0 -146 118 -146 179v196c0 35 -45 42 -77 42l-8 11l30 26l135 30v-278c0 -66 34 -146 99 -146c97 0 120 119 120 136v179c0 35 -44 42 -76 42l-8 11l30 26l134 30v-368c0 -62 29 -62 79 -62l4 -8l-23 -29zM209 556
c-31 0 -55 25 -55 55s24 56 55 56s55 -26 55 -56c0 -32 -26 -55 -55 -55zM384 556c-31 0 -55 25 -55 55s24 56 55 56s55 -26 55 -56c0 -32 -26 -55 -55 -55z" />
    <glyph glyph-name="ugrave" unicode="&#xf9;" horiz-adv-x="593" 
d="M411 -3l-3 91h-2c-30 -43 -83 -105 -153 -105c-119 0 -146 118 -146 179v196c0 35 -45 42 -77 42l-8 11l30 26l135 30v-278c0 -66 34 -146 99 -146c97 0 120 119 120 136v179c0 35 -44 42 -76 42l-8 11l30 26l134 30v-368c0 -62 29 -62 79 -62l4 -8l-23 -29zM394 524
l-223 88l-4 9l69 70c74 -69 84 -80 169 -129l9 -19z" />
    <glyph glyph-name="yacute" unicode="&#xfd;" horiz-adv-x="556" 
d="M49 -235l30 29c63 5 106 68 173 214l-171 379c-8 17 -15 31 -77 31l-6 10l31 27c39 -1 77 -5 116 -5l149 -351l53 124c21 49 44 107 44 154c0 33 -9 41 -79 41l-6 10l31 27c27 -1 54 -5 81 -5c42 0 84 1 125 5l9 -8l-30 -29c-38 -8 -53 -15 -74 -64l-213 -499
c-4 -10 -7 -18 -7 -24c0 -29 27 -37 83 -37l6 -10l-31 -27c-34 2 -69 5 -104 5c-42 0 -84 -1 -125 -5zM180 543l8 19c86 49 95 60 169 129l70 -70l-4 -9l-223 -88z" />
    <glyph glyph-name="ydieresis" unicode="&#xff;" horiz-adv-x="556" 
d="M49 -235l30 29c63 5 106 68 173 214l-171 379c-8 17 -15 31 -77 31l-6 10l31 27c39 -1 77 -5 116 -5l149 -351l53 124c21 49 44 107 44 154c0 33 -9 41 -79 41l-6 10l31 27c27 -1 54 -5 81 -5c42 0 84 1 125 5l9 -8l-30 -29c-38 -8 -53 -15 -74 -64l-213 -499
c-4 -10 -7 -18 -7 -24c0 -29 27 -37 83 -37l6 -10l-31 -27c-34 2 -69 5 -104 5c-42 0 -84 -1 -125 -5zM180 556c-31 0 -55 25 -55 55s24 56 55 56s55 -26 55 -56c0 -32 -26 -55 -55 -55zM355 556c-31 0 -55 25 -55 55s24 56 55 56s55 -26 55 -56c0 -32 -26 -55 -55 -55z" />
    <glyph glyph-name="zcaron" unicode="&#x17e;" horiz-adv-x="444" 
d="M28 23l279 387h-81c-105 0 -112 -7 -139 -90l-36 -24l-9 6l25 148h339l7 -24l-286 -386h114c114 0 116 11 135 102l44 32l7 -5c-11 -41 -19 -87 -31 -169h-359zM260 524h-56c-35 44 -67 80 -128 133l-1 17l25 17l130 -96l135 96l23 -12v-20c-65 -59 -76 -69 -128 -135z
" />
    </font>
</defs>
</svg>
